<?xml version="1.0" standalone="no"?>
<!DOCTYPE svg PUBLIC "-//W3C//DTD SVG 20010904//EN"
 "http://www.w3.org/TR/2001/REC-SVG-20010904/DTD/svg10.dtd">
<svg version="1.0" xmlns="http://www.w3.org/2000/svg"
 width="50px" height="50px" viewBox="0 0 1028.000000 1280.000000"
 preserveAspectRatio="xMidYMid meet">
<metadata>
Created by potrace 1.15, written by Peter Selinger 2001-2017
</metadata>
<g transform="translate(0.000000,1280.000000) scale(0.100000,-0.100000)"
fill="#fffbfb" stroke="none">
<path d="M5713 12783 c15 -2 37 -2 50 0 12 2 0 4 -28 4 -27 0 -38 -2 -22 -4z"/>
<path d="M5608 12773 c7 -3 16 -2 19 1 4 3 -2 6 -13 5 -11 0 -14 -3 -6 -6z"/>
<path d="M5387 12760 c-32 -4 -61 -10 -64 -14 -11 -11 70 -6 127 9 62 15 34
17 -63 5z"/>
<path d="M4923 12699 c-34 -4 -157 -26 -273 -48 -219 -42 -256 -47 -279 -32
-10 7 -11 13 -1 30 11 21 11 21 -22 7 -18 -7 -151 -64 -294 -124 -842 -356
-1234 -566 -1554 -831 -47 -39 -88 -71 -91 -71 -4 0 -10 21 -14 46 l-7 46
-111 -109 c-62 -60 -202 -191 -312 -290 -201 -181 -436 -415 -512 -508 -67
-83 -140 -204 -160 -266 -16 -52 -21 -58 -50 -64 -29 -5 -37 -16 -91 -123 -33
-64 -96 -202 -140 -307 -113 -270 -120 -283 -183 -349 -54 -55 -60 -58 -98
-54 l-40 3 -65 -135 c-170 -356 -318 -749 -489 -1300 -59 -193 -62 -207 -50
-238 30 -73 36 -245 26 -707 -12 -540 -9 -1257 6 -1450 86 -1102 465 -2162
1125 -3144 559 -834 1274 -1523 2086 -2010 265 -159 651 -342 924 -437 147
-51 451 -141 536 -158 183 -37 478 -60 880 -70 l215 -5 -65 20 c-82 24 -311
72 -455 94 -249 38 -504 109 -635 176 -156 79 -265 168 -450 367 -58 62 -127
132 -155 155 l-49 42 34 -60 c18 -33 39 -69 47 -80 22 -33 15 -35 -44 -14
-110 40 -258 118 -338 179 -83 63 -161 105 -255 135 -30 10 -56 19 -58 21 -2
1 20 32 48 69 29 36 50 69 46 72 -3 3 -28 14 -56 24 -117 41 -332 226 -410
352 l-35 57 -94 -1 -95 -2 -54 69 c-144 184 -241 357 -265 473 l-12 63 -26
-47 -26 -47 -165 224 c-256 347 -368 524 -368 586 0 17 6 22 26 22 14 0 34 -5
45 -10 35 -19 20 -3 -47 52 -63 50 -139 140 -170 199 -13 25 -11 29 25 71 l39
44 -39 51 c-100 131 -225 356 -268 481 -35 103 -29 111 37 44 50 -52 157 -121
168 -109 13 12 -140 330 -203 422 -52 76 -118 140 -163 159 -19 8 -62 17 -95
21 -119 14 -186 83 -268 275 -36 85 -107 278 -107 293 0 4 16 7 36 7 20 0 34
3 32 8 -2 4 -33 66 -69 137 l-65 130 16 162 16 163 -33 49 c-99 148 -138 358
-137 751 0 287 7 393 60 895 19 182 43 416 53 521 24 244 45 308 199 604 137
263 202 396 248 502 l33 77 -55 11 c-30 6 -54 14 -54 16 0 12 127 192 200 283
296 372 685 754 995 976 172 124 419 228 503 212 20 -4 32 6 68 55 24 33 44
64 44 69 0 5 -28 -7 -63 -26 -35 -19 -77 -35 -93 -35 -27 1 -22 7 77 104 167
163 311 255 461 296 40 11 133 26 205 35 173 20 229 32 278 61 55 33 80 53 73
59 -3 3 -62 -9 -133 -26 -92 -22 -130 -28 -138 -20 -18 18 23 50 87 67 123 32
269 98 423 190 185 111 267 147 421 185 152 37 369 66 384 51 9 -9 7 -16 -8
-27 -19 -16 -19 -16 1 -11 55 15 171 35 265 47 137 18 604 18 765 1 385 -42
751 -130 1034 -248 741 -311 1487 -1133 1809 -1994 85 -228 142 -474 158 -687
5 -75 10 -93 25 -100 18 -8 19 -33 25 -443 8 -534 -2 -665 -71 -950 -3 -14 14
16 39 65 l44 90 1 -87 c2 -145 -27 -257 -142 -558 l-55 -144 -95 -47 -94 -48
-29 -68 c-25 -61 -28 -78 -26 -165 3 -148 2 -150 -221 -349 -402 -359 -611
-519 -679 -519 -43 0 -35 25 32 94 33 35 60 66 60 70 0 12 -112 -80 -215 -176
-140 -130 -232 -183 -424 -241 -65 -21 -79 -22 -87 -10 -7 11 -28 7 -119 -28
-60 -23 -164 -53 -230 -68 -109 -23 -140 -25 -335 -25 -195 0 -227 3 -343 27
-486 103 -940 376 -1264 762 -309 368 -487 803 -512 1250 -6 107 -8 117 -20
94 -7 -14 -21 -30 -32 -37 -18 -12 -19 -8 -19 127 0 651 319 1261 837 1598
106 69 320 172 452 218 171 58 321 85 516 92 319 11 573 -40 845 -168 110 -53
308 -179 349 -223 14 -14 29 -26 34 -26 16 0 -116 142 -208 223 -233 204 -523
352 -822 420 -85 19 -128 22 -328 22 -199 0 -245 -3 -340 -22 -472 -96 -885
-373 -1095 -733 -27 -45 -70 -99 -108 -134 -114 -106 -184 -233 -282 -511 -65
-184 -93 -249 -127 -293 -22 -29 -28 -54 -41 -156 -21 -181 -21 -589 1 -741
61 -413 203 -739 465 -1065 156 -193 437 -454 762 -706 71 -56 121 -102 130
-122 14 -30 26 -35 154 -78 866 -284 1686 -240 2428 131 315 158 548 329 855
627 165 161 254 238 273 238 4 0 -4 -22 -17 -49 -20 -41 -23 -53 -13 -71 6
-12 9 -28 6 -36 -3 -8 -3 -14 0 -14 3 0 17 26 32 58 20 44 25 70 23 112 -6
127 -4 146 23 206 28 61 127 224 136 224 3 0 32 -38 65 -83 l60 -82 6 75 c8
97 36 172 149 405 155 319 190 427 198 610 2 61 9 118 14 128 12 24 47 21 58
-5 8 -17 9 -4 6 47 -3 39 -2 97 3 130 7 59 8 60 20 30 23 -56 79 -200 82 -213
2 -6 4 45 4 115 0 157 13 215 101 451 56 153 73 212 60 212 -2 0 -20 -7 -39
-15 -20 -8 -43 -12 -51 -9 -37 14 -67 139 -70 288 -1 109 10 146 44 146 26 0
25 12 -4 47 -49 58 -114 206 -147 334 -36 140 -12 140 77 3 28 -45 58 -85 65
-89 16 -11 9 32 -42 254 -22 96 -43 206 -46 245 -6 70 -30 135 -75 199 -22 31
-36 34 -45 10 -18 -51 -46 -48 -81 9 -26 44 -62 189 -62 254 0 70 12 78 98 70
85 -8 100 -3 121 45 l18 39 52 -88 c140 -232 269 -556 401 -1002 22 -74 37
-115 34 -90 -13 92 -96 399 -163 599 -38 113 -65 208 -60 209 13 5 11 73 -6
182 -28 185 -14 215 51 110 20 -33 39 -59 41 -57 6 6 -36 135 -84 257 -291
740 -948 1496 -1700 1956 -65 40 -122 73 -128 74 -5 0 25 -35 67 -77 121 -124
126 -153 14 -86 -176 107 -248 170 -289 253 -32 64 -33 64 -101 88 -101 34
-185 38 -276 12 -41 -11 -103 -26 -137 -32 l-62 -12 -198 97 c-242 118 -362
164 -658 256 -126 39 -283 88 -348 110 -116 39 -119 40 -114 18 3 -12 9 -38
12 -59 l7 -36 -74 19 c-126 34 -232 35 -393 5 -152 -29 -333 -43 -411 -31 -45
6 -47 8 -29 21 10 8 51 24 90 35 38 12 78 24 88 28 10 3 -24 6 -75 6 -51 0
-139 6 -194 14 -96 13 -259 11 -354 -5 -33 -5 -31 -3 24 31 33 20 95 54 138
76 43 22 78 41 78 44 0 6 -2 6 -87 -6z"/>
<path d="M5462 12615 c37 -8 78 -20 90 -27 25 -13 52 -12 83 5 19 10 18 10 -4
19 -13 4 -71 10 -130 13 l-106 4 67 -14z"/>
<path d="M5538 12563 c7 -3 16 -2 19 1 4 3 -2 6 -13 5 -11 0 -14 -3 -6 -6z"/>
<path d="M350 9985 c0 -51 -24 -144 -50 -195 -11 -22 -18 -40 -15 -40 2 0 31
20 64 45 64 48 100 112 109 192 l5 43 -57 -3 -56 -2 0 -40z"/>
<path d="M67 9023 c-60 -93 -71 -142 -61 -259 l10 -99 18 60 c22 72 78 335 74
347 -2 5 -20 -17 -41 -49z"/>
<path d="M7646 7651 c-9 -10 -25 -40 -35 -66 -16 -42 -17 -51 -4 -74 7 -14 23
-52 34 -83 21 -60 42 -74 55 -35 12 37 9 230 -5 255 -14 27 -23 28 -45 3z"/>
<path d="M9732 6965 c-7 -55 -19 -127 -27 -160 -17 -75 -12 -84 8 -13 20 68
40 206 35 243 -2 17 -9 -15 -16 -70z"/>
<path d="M9961 6953 c-5 -21 -19 -92 -31 -158 -27 -156 -79 -360 -130 -509
-46 -138 -47 -168 -1 -40 67 185 138 459 171 662 13 80 8 108 -9 45z"/>
<path d="M7279 6693 c-106 -143 -153 -256 -117 -280 7 -4 33 -15 58 -24 26 -9
50 -25 56 -38 11 -21 14 -19 57 46 57 87 117 207 151 301 14 40 26 76 26 80 0
4 -25 -40 -54 -98 -100 -197 -92 -187 -183 -232 -128 -64 -132 -41 -24 142
123 208 132 240 30 103z"/>
<path d="M9746 6135 c-9 -26 -7 -32 5 -12 6 10 9 21 6 23 -2 3 -7 -2 -11 -11z"/>
<path d="M6590 6048 c-19 -6 -136 -12 -260 -14 -124 -1 -233 -3 -242 -3 -38
-2 -16 -33 40 -58 61 -27 270 -83 313 -83 23 0 70 34 189 139 29 25 32 30 15
30 -11 -1 -36 -6 -55 -11z"/>
<path d="M4005 5990 c18 -66 191 -398 202 -387 9 10 -56 167 -84 202 -18 22
-53 78 -78 125 -25 47 -43 74 -40 60z"/>
<path d="M3826 5724 c-3 -11 -10 -43 -16 -72 l-10 -53 102 -147 c55 -81 122
-174 147 -206 58 -77 158 -183 164 -176 6 6 -66 134 -195 345 -47 77 -108 182
-136 234 -37 69 -51 89 -56 75z"/>
<path d="M4124 5478 c98 -166 334 -427 516 -572 296 -236 664 -435 1030 -556
445 -149 869 -176 1158 -75 l67 24 -240 0 c-414 2 -730 46 -968 137 -90 35
-262 149 -343 229 -35 34 -66 60 -69 57 -3 -3 -5 -16 -5 -30 0 -23 -2 -23 -97
28 -214 114 -375 233 -567 420 -112 107 -124 117 -91 70 77 -109 185 -238 269
-318 47 -45 83 -82 79 -82 -3 0 -27 12 -52 27 -115 66 -249 195 -490 470 -171
196 -255 269 -197 171z"/>
</g>
</svg>
