<?xml version="1.0" encoding="UTF-8"?>
<!DOCTYPE svg PUBLIC "-//W3C//DTD SVG 1.1//EN" "http://www.w3.org/Graphics/SVG/1.1/DTD/svg11.dtd">
<svg xmlns="http://www.w3.org/2000/svg" version="1.1" width="638px" height="638px" style="shape-rendering:geometricPrecision; text-rendering:geometricPrecision; image-rendering:optimizeQuality; fill-rule:evenodd; clip-rule:evenodd" xmlns:xlink="http://www.w3.org/1999/xlink">
<g><path style="opacity:0.661" fill="#313131" d="M 312.5,6.5 C 309.493,8.17453 306.16,8.8412 302.5,8.5C 305.627,7.41925 308.96,6.75258 312.5,6.5 Z"/></g>
<g><path style="opacity:1" fill="#f9f9f9" d="M 312.5,6.5 C 314.5,6.5 316.5,6.5 318.5,6.5C 336.408,6.45731 354.074,8.45731 371.5,12.5C 378.28,15.5411 385.28,18.2078 392.5,20.5C 394.849,22.341 397.515,23.6743 400.5,24.5C 402.153,24.6596 403.486,25.3263 404.5,26.5C 405.659,28.2503 407.326,29.2503 409.5,29.5C 409.973,30.9063 410.973,31.573 412.5,31.5C 412.973,32.9063 413.973,33.573 415.5,33.5C 415.973,34.9063 416.973,35.573 418.5,35.5C 418.973,36.9063 419.973,37.573 421.5,37.5C 422.5,37.8333 423.167,38.5 423.5,39.5C 423.973,40.9063 424.973,41.573 426.5,41.5C 427.833,42.1667 428.833,43.1667 429.5,44.5C 430.585,46.5869 432.251,47.9202 434.5,48.5C 434.5,50.5 435.5,51.5 437.5,51.5C 438.5,51.8333 439.167,52.5 439.5,53.5C 441.094,56.7642 443.427,59.4309 446.5,61.5C 447.419,64.0892 449.086,66.0892 451.5,67.5C 451.738,69.4044 452.738,70.7377 454.5,71.5C 454.427,73.0269 455.094,74.0269 456.5,74.5C 456.738,76.4044 457.738,77.7377 459.5,78.5C 460.338,78.8417 460.672,79.5084 460.5,80.5C 460.427,82.0269 461.094,83.0269 462.5,83.5C 463.338,83.8417 463.672,84.5084 463.5,85.5C 463.427,87.0269 464.094,88.0269 465.5,88.5C 465.157,90.4832 465.824,91.8166 467.5,92.5C 468.338,92.8417 468.672,93.5084 468.5,94.5C 468.924,97.9181 470.258,100.918 472.5,103.5C 472.782,107.68 474.115,111.347 476.5,114.5C 476.32,118.286 477.32,121.619 479.5,124.5C 480.434,125.568 480.768,126.901 480.5,128.5C 480.43,132.425 481.097,136.091 482.5,139.5C 482.5,141.167 482.5,142.833 482.5,144.5C 517.492,152.33 552.492,160.33 587.5,168.5C 588.5,168.833 589.167,169.5 589.5,170.5C 591.036,172.916 592.036,175.583 592.5,178.5C 592.16,180.512 591.827,182.512 591.5,184.5C 590.094,184.973 589.427,185.973 589.5,187.5C 588.564,188.974 587.23,189.974 585.5,190.5C 583.973,190.427 582.973,191.094 582.5,192.5C 582.5,193.167 582.167,193.5 581.5,193.5C 579.973,193.427 578.973,194.094 578.5,195.5C 578.5,196.167 578.167,196.5 577.5,196.5C 575.973,196.427 574.973,197.094 574.5,198.5C 573.564,199.974 572.23,200.974 570.5,201.5C 568.973,201.427 567.973,202.094 567.5,203.5C 567.5,204.167 567.167,204.5 566.5,204.5C 564.973,204.427 563.973,205.094 563.5,206.5C 563.5,207.167 563.167,207.5 562.5,207.5C 559.167,208.833 556.833,211.167 555.5,214.5C 555.5,215.167 555.167,215.5 554.5,215.5C 553.094,215.973 552.427,216.973 552.5,218.5C 552.672,219.492 552.338,220.158 551.5,220.5C 547.4,226.393 545.4,233.06 545.5,240.5C 544.566,241.568 544.232,242.901 544.5,244.5C 556.167,244.5 567.833,244.5 579.5,244.5C 581.749,245.08 583.415,246.413 584.5,248.5C 584.557,249.609 584.89,250.609 585.5,251.5C 585.5,308.167 585.5,364.833 585.5,421.5C 584.4,422.605 583.733,423.938 583.5,425.5C 583.5,426.167 583.167,426.5 582.5,426.5C 579.692,427.884 576.692,428.551 573.5,428.5C 562.852,426.37 552.185,424.37 541.5,422.5C 537.425,420.882 533.092,419.882 528.5,419.5C 528.667,445.835 528.5,472.169 528,498.5C 527.209,499.745 526.709,501.078 526.5,502.5C 526.167,503.5 525.5,504.167 524.5,504.5C 522.847,504.66 521.514,505.326 520.5,506.5C 516.633,506.758 512.966,506.092 509.5,504.5C 508.5,504.167 507.833,503.5 507.5,502.5C 506.489,498.793 505.323,495.127 504,491.5C 502.871,489.859 501.371,488.859 499.5,488.5C 499.027,487.094 498.027,486.427 496.5,486.5C 495.432,485.566 494.099,485.232 492.5,485.5C 492.5,486.5 492.5,487.5 492.5,488.5C 492.672,489.492 492.338,490.158 491.5,490.5C 488.326,495.516 485.659,500.849 483.5,506.5C 483.672,507.492 483.338,508.158 482.5,508.5C 480.75,509.659 479.75,511.326 479.5,513.5C 479.672,514.492 479.338,515.158 478.5,515.5C 477.094,515.973 476.427,516.973 476.5,518.5C 474.75,519.659 473.75,521.326 473.5,523.5C 472.094,523.973 471.427,524.973 471.5,526.5C 470.094,526.973 469.427,527.973 469.5,529.5C 468.974,531.23 467.974,532.564 466.5,533.5C 465.094,533.973 464.427,534.973 464.5,536.5C 464.5,537.167 464.167,537.5 463.5,537.5C 462.094,537.973 461.427,538.973 461.5,540.5C 461.5,541.167 461.167,541.5 460.5,541.5C 459.094,541.973 458.427,542.973 458.5,544.5C 457.833,545.833 456.833,546.833 455.5,547.5C 453.738,548.262 452.738,549.596 452.5,551.5C 451.167,553.5 449.5,555.167 447.5,556.5C 442.833,560.5 438.5,564.833 434.5,569.5C 432.833,571.833 430.833,573.833 428.5,575.5C 426.973,575.427 425.973,576.094 425.5,577.5C 425.167,578.5 424.5,579.167 423.5,579.5C 421.973,579.427 420.973,580.094 420.5,581.5C 420.5,582.167 420.167,582.5 419.5,582.5C 417.973,582.427 416.973,583.094 416.5,584.5C 416.5,585.167 416.167,585.5 415.5,585.5C 413.973,585.427 412.973,586.094 412.5,587.5C 412.5,588.167 412.167,588.5 411.5,588.5C 409.973,588.427 408.973,589.094 408.5,590.5C 406.178,592.664 403.511,594.331 400.5,595.5C 398.326,595.75 396.659,596.75 395.5,598.5C 395.158,599.338 394.492,599.672 393.5,599.5C 390.008,600.41 387.008,602.076 384.5,604.5C 380.418,605.376 376.751,607.043 373.5,609.5C 370.759,609.707 368.426,610.707 366.5,612.5C 363.759,612.707 361.426,613.707 359.5,615.5C 356.759,615.707 354.426,616.707 352.5,618.5C 349.759,618.707 347.426,619.707 345.5,621.5C 342.759,621.707 340.426,622.707 338.5,624.5C 333.939,625.576 329.605,627.243 325.5,629.5C 321.131,629.533 316.798,629.2 312.5,628.5C 311.22,627.069 309.553,626.402 307.5,626.5C 306.209,626.737 305.209,626.404 304.5,625.5C 302.68,623.552 300.346,622.552 297.5,622.5C 296.508,622.672 295.842,622.338 295.5,621.5C 294.22,620.069 292.553,619.402 290.5,619.5C 288.824,617.166 286.491,616.166 283.5,616.5C 282.365,614.787 280.698,614.12 278.5,614.5C 277.209,614.737 276.209,614.404 275.5,613.5C 273.68,611.552 271.346,610.552 268.5,610.5C 267.817,608.824 266.483,608.157 264.5,608.5C 262.815,606.182 260.481,605.182 257.5,605.5C 256.817,603.824 255.483,603.157 253.5,603.5C 252.817,601.824 251.483,601.157 249.5,601.5C 249.027,600.094 248.027,599.427 246.5,599.5C 244.847,599.34 243.514,598.674 242.5,597.5C 242.027,596.094 241.027,595.427 239.5,595.5C 239.027,594.094 238.027,593.427 236.5,593.5C 235.508,593.672 234.842,593.338 234.5,592.5C 234.027,591.094 233.027,590.427 231.5,590.5C 230.738,588.738 229.404,587.738 227.5,587.5C 227.027,586.094 226.027,585.427 224.5,585.5C 223.415,583.413 221.749,582.08 219.5,581.5C 218.415,579.413 216.749,578.08 214.5,577.5C 213.415,575.413 211.749,574.08 209.5,573.5C 208.5,573.167 207.833,572.5 207.5,571.5C 203.441,566.438 198.774,562.105 193.5,558.5C 192.581,555.911 190.914,553.911 188.5,552.5C 187.167,551.833 186.167,550.833 185.5,549.5C 185.262,547.596 184.262,546.262 182.5,545.5C 181.5,545.167 180.833,544.5 180.5,543.5C 180.573,541.973 179.906,540.973 178.5,540.5C 177.5,540.167 176.833,539.5 176.5,538.5C 176.446,536.368 175.446,535.035 173.5,534.5C 173.573,532.973 172.906,531.973 171.5,531.5C 171.573,529.973 170.906,528.973 169.5,528.5C 169.573,526.973 168.906,525.973 167.5,525.5C 167.573,523.973 166.906,522.973 165.5,522.5C 165.573,520.973 164.906,519.973 163.5,519.5C 163.25,517.326 162.25,515.659 160.5,514.5C 160.25,512.326 159.25,510.659 157.5,509.5C 156.662,509.158 156.328,508.492 156.5,507.5C 153.675,500.516 150.341,493.849 146.5,487.5C 146.384,483.437 145.051,482.77 142.5,485.5C 142.158,486.338 141.492,486.672 140.5,486.5C 138.973,486.427 137.973,487.094 137.5,488.5C 137.167,489.5 136.5,490.167 135.5,490.5C 134.167,490.5 133.5,491.167 133.5,492.5C 132.883,492.611 132.383,492.944 132,493.5C 131.261,496.546 130.428,499.546 129.5,502.5C 129.167,503.5 128.5,504.167 127.5,504.5C 124.034,506.092 120.367,506.758 116.5,506.5C 114.777,504.782 112.777,503.449 110.5,502.5C 110.291,501.078 109.791,499.745 109,498.5C 108.5,472.169 108.333,445.835 108.5,419.5C 99.1963,420.758 90.1963,422.758 81.5,425.5C 73.6289,427.467 65.6289,428.467 57.5,428.5C 55.5956,428.262 54.2623,427.262 53.5,425.5C 52.8333,423.833 52.1667,422.167 51.5,420.5C 51.3333,363.832 51.5,307.166 52,250.5C 54.0396,248.63 55.8729,246.63 57.5,244.5C 69.1667,244.5 80.8333,244.5 92.5,244.5C 92.7373,243.209 92.404,242.209 91.5,241.5C 91.5,240.833 91.5,240.167 91.5,239.5C 91.3143,232.266 88.981,225.933 84.5,220.5C 84.573,218.973 83.9063,217.973 82.5,217.5C 80.8333,213.833 78.1667,211.167 74.5,209.5C 74.0269,208.094 73.0269,207.427 71.5,207.5C 70.7377,205.738 69.4044,204.738 67.5,204.5C 67.0269,203.094 66.0269,202.427 64.5,202.5C 63.7377,200.738 62.4044,199.738 60.5,199.5C 59.7377,197.738 58.4044,196.738 56.5,196.5C 56.0269,195.094 55.0269,194.427 53.5,194.5C 52.7377,192.738 51.4044,191.738 49.5,191.5C 49.0269,190.094 48.0269,189.427 46.5,189.5C 46.5,189.167 46.5,188.833 46.5,188.5C 44.3052,184.324 43.9718,179.991 45.5,175.5C 47.5,174.167 49.1667,172.5 50.5,170.5C 57.0609,169.278 63.3942,167.611 69.5,165.5C 70.5676,164.566 71.901,164.232 73.5,164.5C 76.4951,164.706 79.1617,164.04 81.5,162.5C 88.7891,161.593 95.7891,159.927 102.5,157.5C 104.905,156.232 107.572,155.565 110.5,155.5C 120.457,153.927 130.124,151.593 139.5,148.5C 140.568,147.566 141.901,147.232 143.5,147.5C 147.837,147.416 151.837,146.416 155.5,144.5C 156.568,143.566 157.901,143.232 159.5,143.5C 164.12,143.26 168.453,142.26 172.5,140.5C 173.5,140.5 174.5,140.5 175.5,140.5C 176.515,133.106 177.849,125.773 179.5,118.5C 181.072,115.785 182.072,112.785 182.5,109.5C 182.402,107.447 183.069,105.78 184.5,104.5C 185.931,103.22 186.598,101.553 186.5,99.5C 186.66,97.847 187.326,96.5137 188.5,95.5C 189.674,94.4863 190.34,93.153 190.5,91.5C 190.328,90.5084 190.662,89.8417 191.5,89.5C 193.559,87.7396 194.892,85.4062 195.5,82.5C 197.25,81.3406 198.25,79.674 198.5,77.5C 200.262,76.7377 201.262,75.4044 201.5,73.5C 202.906,73.0269 203.573,72.0269 203.5,70.5C 205.587,69.4154 206.92,67.7488 207.5,65.5C 213.472,59.193 219.472,52.8597 225.5,46.5C 225.5,45.1667 226.167,44.5 227.5,44.5C 229.749,43.9202 231.415,42.5869 232.5,40.5C 234.749,39.9202 236.415,38.5869 237.5,36.5C 239.027,36.573 240.027,35.9063 240.5,34.5C 242.404,34.2624 243.738,33.2624 244.5,31.5C 246.027,31.573 247.027,30.9063 247.5,29.5C 247.842,28.6618 248.508,28.3284 249.5,28.5C 251.027,28.573 252.027,27.9063 252.5,26.5C 254.849,24.659 257.515,23.3257 260.5,22.5C 264.836,22.1631 268.503,20.4965 271.5,17.5C 277.102,16.4374 282.435,14.7707 287.5,12.5C 291.025,11.7903 294.358,10.7903 297.5,9.5C 298.919,8.54885 300.585,8.21552 302.5,8.5C 306.16,8.8412 309.493,8.17453 312.5,6.5 Z"/></g>
<g><path style="opacity:0.692" fill="#353535" d="M 318.5,6.5 C 336.553,4.73917 354.22,6.73917 371.5,12.5C 354.074,8.45731 336.408,6.45731 318.5,6.5 Z"/></g>
<g><path style="opacity:0.635" fill="#383838" d="M 297.5,9.5 C 294.358,10.7903 291.025,11.7903 287.5,12.5C 286.833,12.5 286.167,12.5 285.5,12.5C 289.163,10.5841 293.163,9.58413 297.5,9.5 Z"/></g>
<g><path style="opacity:0.765" fill="#4e4e4e" d="M 371.5,12.5 C 379.015,14.002 386.015,16.6686 392.5,20.5C 385.28,18.2078 378.28,15.5411 371.5,12.5 Z"/></g>
<g><path style="opacity:1" fill="#838383" d="M 285.5,12.5 C 286.167,12.5 286.833,12.5 287.5,12.5C 282.435,14.7707 277.102,16.4374 271.5,17.5C 275.799,15.0649 280.466,13.3982 285.5,12.5 Z"/></g>
<g><path style="opacity:1" fill="#242535" d="M 517.5,405.5 C 516.833,433.5 516.167,461.5 515.5,489.5C 514.182,485.668 511.848,482.501 508.5,480C 502.167,475.583 495.334,472.083 488,469.5C 470.676,512.82 443.51,548.654 406.5,577C 400.335,581.25 394.002,585.25 387.5,589C 365.51,599.245 343.343,609.079 321,618.5C 296.338,609.167 272.171,598.667 248.5,587C 203.072,558.403 171.072,518.903 152.5,468.5C 139.481,471.218 129.148,477.884 121.5,488.5C 120.833,460.664 120.167,432.664 119.5,404.5C 118.893,404.624 118.56,404.957 118.5,405.5C 99.7286,408.654 81.0619,412.321 62.5,416.5C 62.5,362.833 62.5,309.167 62.5,255.5C 77.1667,255.5 91.8333,255.5 106.5,255.5C 105.466,241.49 101.966,228.156 96,215.5C 92.5813,210.077 88.4146,205.244 83.5,201C 74.3852,195.046 65.7185,188.546 57.5,181.5C 100.086,170.921 142.753,160.421 185.5,150C 193.391,92.1153 224.057,51.4486 277.5,28C 330.12,10.2404 378.12,18.5738 421.5,53C 451.22,79.773 467.886,113.106 471.5,153C 507.807,161.827 544.14,170.493 580.5,179C 572.343,185.245 564.01,191.245 555.5,197C 546.205,204.621 539.705,214.121 536,225.5C 533.846,235.447 532.013,245.447 530.5,255.5C 545.167,255.5 559.833,255.5 574.5,255.5C 574.5,309.167 574.5,362.833 574.5,416.5C 555.594,412.452 536.594,408.786 517.5,405.5 Z"/></g>
<g><path style="opacity:1" fill="#969696" d="M 271.5,17.5 C 268.503,20.4965 264.836,22.1631 260.5,22.5C 263.751,20.0431 267.418,18.3764 271.5,17.5 Z"/></g>
<g><path style="opacity:0.404" fill="#454545" d="M 392.5,20.5 C 395.754,20.7936 398.421,22.127 400.5,24.5C 397.515,23.6743 394.849,22.341 392.5,20.5 Z"/></g>
<g><path style="opacity:0.824" fill="#525252" d="M 252.5,26.5 C 252.027,27.9063 251.027,28.573 249.5,28.5C 249.973,27.0937 250.973,26.427 252.5,26.5 Z"/></g>
<g><path style="opacity:0.443" fill="#424242" d="M 404.5,26.5 C 406.674,26.7497 408.341,27.7497 409.5,29.5C 407.326,29.2503 405.659,28.2503 404.5,26.5 Z"/></g>
<g><path style="opacity:0.78" fill="#434343" d="M 247.5,29.5 C 247.027,30.9063 246.027,31.573 244.5,31.5C 244.973,30.0937 245.973,29.427 247.5,29.5 Z"/></g>
<g><path style="opacity:0.361" fill="#484848" d="M 409.5,29.5 C 411.027,29.427 412.027,30.0937 412.5,31.5C 410.973,31.573 409.973,30.9063 409.5,29.5 Z"/></g>
<g><path style="opacity:0.796" fill="#5b5b5b" d="M 244.5,31.5 C 243.738,33.2624 242.404,34.2624 240.5,34.5C 241.262,32.7376 242.596,31.7376 244.5,31.5 Z"/></g>
<g><path style="opacity:0.408" fill="#585858" d="M 412.5,31.5 C 414.027,31.427 415.027,32.0937 415.5,33.5C 413.973,33.573 412.973,32.9063 412.5,31.5 Z"/></g>
<g><path style="opacity:0.263" fill="#373737" d="M 415.5,33.5 C 417.027,33.427 418.027,34.0937 418.5,35.5C 416.973,35.573 415.973,34.9063 415.5,33.5 Z"/></g>
<g><path style="opacity:0.925" fill="#757575" d="M 240.5,34.5 C 240.027,35.9063 239.027,36.573 237.5,36.5C 237.973,35.0937 238.973,34.427 240.5,34.5 Z"/></g>
<g><path style="opacity:0.008" fill="#202020" d="M 418.5,35.5 C 420.027,35.427 421.027,36.0937 421.5,37.5C 419.973,37.573 418.973,36.9063 418.5,35.5 Z"/></g>
<g><path style="opacity:0.984" fill="#898989" d="M 237.5,36.5 C 236.415,38.5869 234.749,39.9202 232.5,40.5C 233.585,38.4131 235.251,37.0798 237.5,36.5 Z"/></g>
<g><path style="opacity:0.086" fill="#262626" d="M 423.5,39.5 C 425.027,39.427 426.027,40.0937 426.5,41.5C 424.973,41.573 423.973,40.9063 423.5,39.5 Z"/></g>
<g><path style="opacity:1" fill="#73223b" d="M 360.5,42.5 C 362.288,41.3775 364.288,41.2109 366.5,42C 365.437,43.1882 364.103,43.6882 362.5,43.5C 362.158,42.6618 361.492,42.3284 360.5,42.5 Z"/></g>
<g><path style="opacity:1" fill="#f1f1f2" d="M 372.5,38.5 C 395.511,47.1739 414.844,61.0073 430.5,80C 427.756,79.9808 425.089,79.3141 422.5,78C 407.451,65.9497 392.117,54.283 376.5,43C 374.808,41.6927 373.475,40.1927 372.5,38.5 Z"/></g>
<g><path style="opacity:1" fill="#f3f3f4" d="M 281.5,39.5 C 283.842,39.7748 283.842,40.6081 281.5,42C 266.5,53.6667 251.5,65.3333 236.5,77C 233.79,79.4107 230.79,80.2441 227.5,79.5C 242.281,61.7807 260.281,48.4474 281.5,39.5 Z"/></g>
<g><path style="opacity:0.98" fill="#878787" d="M 232.5,40.5 C 231.415,42.5869 229.749,43.9202 227.5,44.5C 228.585,42.4131 230.251,41.0798 232.5,40.5 Z"/></g>
<g><path style="opacity:1" fill="#e11f44" d="M 360.5,42.5 C 361.492,42.3284 362.158,42.6618 362.5,43.5C 351.165,46.1676 339.832,48.8343 328.5,51.5C 315.396,49.1406 302.396,46.3073 289.5,43C 302.371,42.9914 315.205,43.8247 328,45.5C 338.773,43.9565 349.607,42.9565 360.5,42.5 Z"/></g>
<g><path style="opacity:0.063" fill="#333333" d="M 429.5,44.5 C 431.749,45.0798 433.415,46.4131 434.5,48.5C 432.251,47.9202 430.585,46.5869 429.5,44.5 Z"/></g>
<g><path style="opacity:1" fill="#fdfdfd" d="M 285.5,45.5 C 298.804,48.4918 312.137,51.4918 325.5,54.5C 326.666,72.8242 326.833,91.1576 326,109.5C 311.656,119.848 297.323,130.181 283,140.5C 268.229,135.465 253.395,130.632 238.5,126C 237.24,123.787 236.574,121.287 236.5,118.5C 237.001,106.138 237.834,93.8044 239,81.5C 254.4,69.254 269.9,57.254 285.5,45.5 Z"/></g>
<g><path style="opacity:1" fill="#fdfdfe" d="M 418.5,94.5 C 409.323,108.187 399.656,121.521 389.5,134.5C 384.033,136.936 378.367,138.436 372.5,139C 358.403,129.535 344.57,119.702 331,109.5C 330.167,91.1576 330.334,72.8242 331.5,54.5C 344.615,50.3861 357.948,47.5527 371.5,46C 386.975,57.3076 402.308,68.8076 417.5,80.5C 418.493,85.1196 418.827,89.7863 418.5,94.5 Z"/></g>
<g><path style="opacity:0.831" fill="#646464" d="M 434.5,48.5 C 435.833,49.1667 436.833,50.1667 437.5,51.5C 435.5,51.5 434.5,50.5 434.5,48.5 Z"/></g>
<g><path style="opacity:0.914" fill="#838383" d="M 225.5,46.5 C 219.472,52.8597 213.472,59.193 207.5,65.5C 212.121,57.8783 218.121,51.5449 225.5,46.5 Z"/></g>
<g><path style="opacity:0.898" fill="#5d5d5d" d="M 439.5,53.5 C 442.573,55.5691 444.906,58.2358 446.5,61.5C 443.427,59.4309 441.094,56.7642 439.5,53.5 Z"/></g>
<g><path style="opacity:0.765" fill="#505050" d="M 446.5,61.5 C 448.914,62.9108 450.581,64.9108 451.5,67.5C 449.086,66.0892 447.419,64.0892 446.5,61.5 Z"/></g>
<g><path style="opacity:0.702" fill="#656565" d="M 207.5,65.5 C 206.92,67.7488 205.587,69.4154 203.5,70.5C 204.08,68.2512 205.413,66.5846 207.5,65.5 Z"/></g>
<g><path style="opacity:0.729" fill="#494949" d="M 451.5,67.5 C 453.262,68.2623 454.262,69.5956 454.5,71.5C 452.738,70.7377 451.738,69.4044 451.5,67.5 Z"/></g>
<g><path style="opacity:0.835" fill="#676767" d="M 203.5,70.5 C 203.573,72.0269 202.906,73.0269 201.5,73.5C 201.427,71.9731 202.094,70.9731 203.5,70.5 Z"/></g>
<g><path style="opacity:0.647" fill="#3d3d3d" d="M 454.5,71.5 C 455.906,71.9731 456.573,72.9731 456.5,74.5C 455.094,74.0269 454.427,73.0269 454.5,71.5 Z"/></g>
<g><path style="opacity:0.863" fill="#6f6f6f" d="M 201.5,73.5 C 201.262,75.4044 200.262,76.7377 198.5,77.5C 198.738,75.5956 199.738,74.2623 201.5,73.5 Z"/></g>
<g><path style="opacity:0.675" fill="#3a3a3a" d="M 456.5,74.5 C 458.262,75.2623 459.262,76.5956 459.5,78.5C 457.738,77.7377 456.738,76.4044 456.5,74.5 Z"/></g>
<g><path style="opacity:0.859" fill="#5c5c5c" d="M 198.5,77.5 C 198.25,79.674 197.25,81.3406 195.5,82.5C 195.75,80.326 196.75,78.6594 198.5,77.5 Z"/></g>
<g><path style="opacity:0.533" fill="#383838" d="M 460.5,80.5 C 461.906,80.9731 462.573,81.9731 462.5,83.5C 461.094,83.0269 460.427,82.0269 460.5,80.5 Z"/></g>
<g><path style="opacity:1" fill="#e31e44" d="M 424.5,83.5 C 426.801,84.0604 429.134,84.5604 431.5,85C 429.362,87.2833 428.362,90.1166 428.5,93.5C 429.577,103.509 430.743,113.509 432,123.5C 437.167,133.167 442.333,142.833 447.5,152.5C 447.154,153.696 446.654,153.696 446,152.5C 439.385,142.884 432.385,133.55 425,124.5C 424.206,113.511 423.706,102.511 423.5,91.5C 423.194,88.6146 423.527,85.9479 424.5,83.5 Z"/></g>
<g><path style="opacity:1" fill="#e51e44" d="M 231.5,83.5 C 232.787,84.8714 233.453,86.7047 233.5,89C 232.783,101.507 231.95,114.007 231,126.5C 223.667,136.5 216.333,146.5 209,156.5C 213.986,145.522 219.32,134.522 225,123.5C 226.389,111.833 227.389,100.166 228,88.5C 227.075,87.9535 226.242,87.2868 225.5,86.5C 227.594,85.4824 229.594,84.4824 231.5,83.5 Z"/></g>
<g><path style="opacity:0.373" fill="#252525" d="M 463.5,85.5 C 464.906,85.9731 465.573,86.9731 465.5,88.5C 464.094,88.0269 463.427,87.0269 463.5,85.5 Z"/></g>
<g><path style="opacity:1" fill="#969696" d="M 195.5,82.5 C 194.892,85.4062 193.559,87.7396 191.5,89.5C 192.079,86.6689 193.412,84.3356 195.5,82.5 Z"/></g>
<g><path style="opacity:1" fill="#88213c" d="M 424.5,83.5 C 423.527,85.9479 423.194,88.6146 423.5,91.5C 422.197,88.6447 422.197,85.6447 423.5,82.5C 424.107,82.6236 424.44,82.9569 424.5,83.5 Z"/></g>
<g><path style="opacity:0.976" fill="#686868" d="M 465.5,88.5 C 466.674,89.5137 467.34,90.847 467.5,92.5C 465.824,91.8166 465.157,90.4832 465.5,88.5 Z"/></g>
<g><path style="opacity:0.404" fill="#525252" d="M 190.5,91.5 C 190.34,93.153 189.674,94.4863 188.5,95.5C 188.229,93.6203 188.896,92.287 190.5,91.5 Z"/></g>
<g><path style="opacity:1" fill="#b2bdc1" d="M 418.5,94.5 C 419.355,102.497 420.022,110.664 420.5,119C 420.167,120.833 419.833,122.667 419.5,124.5C 409.686,128.438 399.686,131.771 389.5,134.5C 399.656,121.521 409.323,108.187 418.5,94.5 Z"/></g>
<g><path style="opacity:0.175" fill="#2e2e2e" d="M 468.5,94.5 C 470.625,97.0878 471.958,100.088 472.5,103.5C 470.258,100.918 468.924,97.9181 468.5,94.5 Z"/></g>
<g><path style="opacity:0.675" fill="#575757" d="M 186.5,99.5 C 186.598,101.553 185.931,103.22 184.5,104.5C 184.402,102.447 185.069,100.78 186.5,99.5 Z"/></g>
<g><path style="opacity:0.906" fill="#555555" d="M 472.5,103.5 C 474.601,106.797 475.935,110.463 476.5,114.5C 474.115,111.347 472.782,107.68 472.5,103.5 Z"/></g>
<g><path style="opacity:0.278" fill="#545454" d="M 182.5,109.5 C 182.072,112.785 181.072,115.785 179.5,118.5C 179.528,115.084 180.528,112.084 182.5,109.5 Z"/></g>
<g><path style="opacity:1" fill="#eb1d45" d="M 327.5,114.5 C 340.792,123.156 353.792,132.322 366.5,142C 353.839,138.169 341.172,134.002 328.5,129.5C 315.396,134.07 302.396,138.57 289.5,143C 302.35,133.637 315.017,124.137 327.5,114.5 Z"/></g>
<g><path style="opacity:0.859" fill="#434343" d="M 476.5,114.5 C 478.277,117.505 479.277,120.838 479.5,124.5C 477.32,121.619 476.32,118.286 476.5,114.5 Z"/></g>
<g><path style="opacity:0.933" fill="#555555" d="M 179.5,118.5 C 177.849,125.773 176.515,133.106 175.5,140.5C 174.5,140.5 173.5,140.5 172.5,140.5C 174.832,133.184 177.165,125.85 179.5,118.5 Z"/></g>
<g><path style="opacity:1" fill="#b2bec2" d="M 418.5,130.5 C 421.785,130.269 424.285,131.603 426,134.5C 432.955,143.79 440.288,152.79 448,161.5C 448.167,162.333 448.333,163.167 448.5,164C 441.576,186.862 434.576,209.695 427.5,232.5C 415.441,235.181 403.441,238.181 391.5,241.5C 379.991,227.004 369.325,211.838 359.5,196C 364.605,179.352 370.105,162.852 376,146.5C 390.295,141.259 404.461,135.926 418.5,130.5 Z"/></g>
<g><path style="opacity:1" fill="#fdfdfd" d="M 234.5,131.5 C 250.291,136.43 265.957,141.764 281.5,147.5C 288.209,164.12 293.376,181.12 297,198.5C 286.976,213.501 276.643,228.168 266,242.5C 254.348,239.038 242.682,235.705 231,232.5C 223.397,209.859 215.897,187.193 208.5,164.5C 217.19,153.481 225.857,142.481 234.5,131.5 Z"/></g>
<g><path style="opacity:0.197" fill="#131313" d="M 480.5,128.5 C 481.903,131.909 482.57,135.575 482.5,139.5C 481.097,136.091 480.43,132.425 480.5,128.5 Z"/></g>
<g><path style="opacity:0.737" fill="#333333" d="M 172.5,140.5 C 168.453,142.26 164.12,143.26 159.5,143.5C 163.547,141.74 167.88,140.74 172.5,140.5 Z"/></g>
<g><path style="opacity:0.659" fill="#3f3f3f" d="M 155.5,144.5 C 151.837,146.416 147.837,147.416 143.5,147.5C 147.239,145.898 151.239,144.898 155.5,144.5 Z"/></g>
<g><path style="opacity:0.545" fill="#2c2c2c" d="M 482.5,139.5 C 483.249,140.531 483.915,141.698 484.5,143C 517.464,150.824 550.464,158.491 583.5,166C 585.32,166.2 586.653,167.034 587.5,168.5C 552.492,160.33 517.492,152.33 482.5,144.5C 482.5,142.833 482.5,141.167 482.5,139.5 Z"/></g>
<g><path style="opacity:0.765" fill="#383838" d="M 139.5,148.5 C 130.124,151.593 120.457,153.927 110.5,155.5C 119.876,152.407 129.543,150.073 139.5,148.5 Z"/></g>
<g><path style="opacity:0.78" fill="#3c3c3c" d="M 102.5,157.5 C 95.7891,159.927 88.7891,161.593 81.5,162.5C 88.2109,160.073 95.2109,158.407 102.5,157.5 Z"/></g>
<g><path style="opacity:1" fill="#afb9be" d="M 458.5,158.5 C 460.196,190.086 451.196,218.419 431.5,243.5C 430.353,241.235 430.186,238.902 431,236.5C 439.589,212.398 447.589,188.064 455,163.5C 455.997,161.677 457.164,160.01 458.5,158.5 Z"/></g>
<g><path style="opacity:1" fill="#faf7f8" d="M 199.5,161.5 C 203.139,169.239 206.306,177.239 209,185.5C 214.539,203.949 220.372,222.282 226.5,240.5C 226.333,241.5 226.167,242.5 226,243.5C 208.834,221.507 199.667,196.507 198.5,168.5C 198.198,165.941 198.532,163.607 199.5,161.5 Z"/></g>
<g><path style="opacity:1" fill="#7c7c86" d="M 199.5,161.5 C 198.532,163.607 198.198,165.941 198.5,168.5C 197.362,165.696 197.195,162.696 198,159.5C 198.717,160.044 199.217,160.711 199.5,161.5 Z"/></g>
<g><path style="opacity:0.725" fill="#484848" d="M 81.5,162.5 C 79.1617,164.04 76.4951,164.706 73.5,164.5C 75.9052,163.232 78.5718,162.565 81.5,162.5 Z"/></g>
<g><path style="opacity:0.643" fill="#3c3c3c" d="M 69.5,165.5 C 63.3942,167.611 57.0609,169.278 50.5,170.5C 56.4363,167.764 62.7696,166.098 69.5,165.5 Z"/></g>
<g><path style="opacity:0.761" fill="#3f3f3f" d="M 50.5,170.5 C 49.1667,172.5 47.5,174.167 45.5,175.5C 46.1667,172.833 47.8333,171.167 50.5,170.5 Z"/></g>
<g><path style="opacity:0.139" fill="#2e2e2e" d="M 589.5,170.5 C 593.24,173.599 594.407,177.599 593,182.5C 592.722,183.416 592.222,184.082 591.5,184.5C 591.827,182.512 592.16,180.512 592.5,178.5C 592.036,175.583 591.036,172.916 589.5,170.5 Z"/></g>
<g><path style="opacity:0.174" fill="#2c2c2c" d="M 45.5,175.5 C 43.9718,179.991 44.3052,184.324 46.5,188.5C 44.1716,186.834 43.1716,184.501 43.5,181.5C 43.361,179.117 44.0277,177.117 45.5,175.5 Z"/></g>
<g><path style="opacity:0.071" fill="#2a2a2a" d="M 591.5,184.5 C 591.573,186.027 590.906,187.027 589.5,187.5C 589.427,185.973 590.094,184.973 591.5,184.5 Z"/></g>
<g><path style="opacity:1" fill="#f2e7ea" d="M 188.5,193.5 C 173.417,194.941 158.417,196.941 143.5,199.5C 158.373,195.661 173.373,191.994 188.5,188.5C 188.5,190.167 188.5,191.833 188.5,193.5 Z"/></g>
<g><path style="opacity:0.851" fill="#454545" d="M 46.5,189.5 C 48.0269,189.427 49.0269,190.094 49.5,191.5C 47.9731,191.573 46.9731,190.906 46.5,189.5 Z"/></g>
<g><path style="opacity:0.059" fill="#1b1b1b" d="M 585.5,190.5 C 585.027,191.906 584.027,192.573 582.5,192.5C 582.973,191.094 583.973,190.427 585.5,190.5 Z"/></g>
<g><path style="opacity:0.859" fill="#6b6b6b" d="M 49.5,191.5 C 51.4044,191.738 52.7377,192.738 53.5,194.5C 51.5956,194.262 50.2623,193.262 49.5,191.5 Z"/></g>
<g><path style="opacity:1" fill="#f9e8eb" d="M 486.5,195.5 C 486.158,196.338 485.492,196.672 484.5,196.5C 479.091,196.094 473.758,195.427 468.5,194.5C 468.281,193.325 468.614,192.325 469.5,191.5C 475.063,193.308 480.73,194.641 486.5,195.5 Z"/></g>
<g><path style="opacity:1" fill="#f21e46" d="M 188.5,193.5 C 193.908,216.482 204.241,236.982 219.5,255C 209.839,255.5 200.172,255.666 190.5,255.5C 173.148,240.818 155.481,226.485 137.5,212.5C 136.213,208.687 135.213,204.687 134.5,200.5C 137.57,200.632 140.57,200.299 143.5,199.5C 158.417,196.941 173.417,194.941 188.5,193.5 Z"/></g>
<g><path style="opacity:0.039" fill="#1a1a1a" d="M 581.5,193.5 C 581.027,194.906 580.027,195.573 578.5,195.5C 578.973,194.094 579.973,193.427 581.5,193.5 Z"/></g>
<g><path style="opacity:0.827" fill="#696969" d="M 53.5,194.5 C 55.0269,194.427 56.0269,195.094 56.5,196.5C 54.9731,196.573 53.9731,195.906 53.5,194.5 Z"/></g>
<g><path style="opacity:1" fill="#cb1a46" d="M 468.5,194.5 C 473.758,195.427 479.091,196.094 484.5,196.5C 488.618,197.709 492.951,198.376 497.5,198.5C 499.167,198.5 500.833,198.5 502.5,198.5C 501.474,205.02 500.141,211.353 498.5,217.5C 482.207,229.793 466.207,242.459 450.5,255.5C 446.154,255.666 441.821,255.499 437.5,255C 452.487,237.192 462.821,217.025 468.5,194.5 Z"/></g>
<g><path style="opacity:1" fill="#d49aa9" d="M 486.5,195.5 C 490.397,196.055 494.063,197.055 497.5,198.5C 492.951,198.376 488.618,197.709 484.5,196.5C 485.492,196.672 486.158,196.338 486.5,195.5 Z"/></g>
<g><path style="opacity:0.843" fill="#6a6a6a" d="M 56.5,196.5 C 58.4044,196.738 59.7377,197.738 60.5,199.5C 58.5956,199.262 57.2623,198.262 56.5,196.5 Z"/></g>
<g><path style="opacity:0.016" fill="#1a1a1a" d="M 577.5,196.5 C 577.027,197.906 576.027,198.573 574.5,198.5C 574.973,197.094 575.973,196.427 577.5,196.5 Z"/></g>
<g><path style="opacity:0.827" fill="#5b5b5b" d="M 60.5,199.5 C 62.4044,199.738 63.7377,200.738 64.5,202.5C 62.5956,202.262 61.2623,201.262 60.5,199.5 Z"/></g>
<g><path style="opacity:1" fill="#fcfbfb" d="M 321.5,200.5 C 310.072,211.045 297.739,220.379 284.5,228.5C 290.474,219.518 296.474,210.518 302.5,201.5C 308.798,200.504 315.132,200.17 321.5,200.5 Z"/></g>
<g><path style="opacity:1" fill="#b2bec2" d="M 321.5,200.5 C 332.838,200.333 344.172,200.5 355.5,201C 365.5,215.667 375.5,230.333 385.5,245C 382.974,248.026 380.64,251.193 378.5,254.5C 345.505,255.667 312.505,255.833 279.5,255C 277.36,251.879 275.36,248.713 273.5,245.5C 276.429,239.296 280.096,233.63 284.5,228.5C 297.739,220.379 310.072,211.045 321.5,200.5 Z"/></g>
<g><path style="opacity:0.094" fill="#1c1c1c" d="M 570.5,201.5 C 570.027,202.906 569.027,203.573 567.5,203.5C 567.973,202.094 568.973,201.427 570.5,201.5 Z"/></g>
<g><path style="opacity:0.706" fill="#4e4e4e" d="M 64.5,202.5 C 66.0269,202.427 67.0269,203.094 67.5,204.5C 65.9731,204.573 64.9731,203.906 64.5,202.5 Z"/></g>
<g><path style="opacity:0.847" fill="#636363" d="M 67.5,204.5 C 69.4044,204.738 70.7377,205.738 71.5,207.5C 69.5956,207.262 68.2623,206.262 67.5,204.5 Z"/></g>
<g><path style="opacity:0.067" fill="#191919" d="M 566.5,204.5 C 566.027,205.906 565.027,206.573 563.5,206.5C 563.973,205.094 564.973,204.427 566.5,204.5 Z"/></g>
<g><path style="opacity:0.737" fill="#646464" d="M 71.5,207.5 C 73.0269,207.427 74.0269,208.094 74.5,209.5C 72.9731,209.573 71.9731,208.906 71.5,207.5 Z"/></g>
<g><path style="opacity:0.961" fill="#666666" d="M 74.5,209.5 C 78.1667,211.167 80.8333,213.833 82.5,217.5C 79.5,215.167 76.8333,212.5 74.5,209.5 Z"/></g>
<g><path style="opacity:0.031" fill="#5d5d5d" d="M 562.5,207.5 C 560.5,210.167 558.167,212.5 555.5,214.5C 556.833,211.167 559.167,208.833 562.5,207.5 Z"/></g>
<g><path style="opacity:1" fill="#cb1a46" d="M 137.5,212.5 C 155.481,226.485 173.148,240.818 190.5,255.5C 175.167,255.5 159.833,255.5 144.5,255.5C 142.259,241.148 139.926,226.815 137.5,212.5 Z"/></g>
<g><path style="opacity:1" fill="#f31d46" d="M 498.5,217.5 C 496.5,230.167 494.5,242.833 492.5,255.5C 478.5,255.5 464.5,255.5 450.5,255.5C 466.207,242.459 482.207,229.793 498.5,217.5 Z"/></g>
<g><path style="opacity:0.29" fill="#3d3d3d" d="M 554.5,215.5 C 554.573,217.027 553.906,218.027 552.5,218.5C 552.427,216.973 553.094,215.973 554.5,215.5 Z"/></g>
<g><path style="opacity:0.239" fill="#3d3d3d" d="M 82.5,217.5 C 83.9063,217.973 84.573,218.973 84.5,220.5C 83.0937,220.027 82.427,219.027 82.5,217.5 Z"/></g>
<g><path style="opacity:0.439" fill="#3c3c3c" d="M 84.5,220.5 C 88.981,225.933 91.3143,232.266 91.5,239.5C 91.1667,239.5 90.8333,239.5 90.5,239.5C 89.3014,232.905 87.3014,226.571 84.5,220.5 Z"/></g>
<g><path style="opacity:0.455" fill="#3a3a3a" d="M 551.5,220.5 C 549.207,227.003 547.541,233.67 546.5,240.5C 546.167,240.5 545.833,240.5 545.5,240.5C 545.4,233.06 547.4,226.393 551.5,220.5 Z"/></g>
<g><path style="opacity:1" fill="#e11e44" d="M 422.5,237.5 C 424.167,237.5 425.833,237.5 427.5,237.5C 427.664,240.187 427.497,242.854 427,245.5C 425.993,242.197 423.827,241.03 420.5,242C 411.268,244.975 401.934,247.642 392.5,250C 390.55,252.465 388.217,254.298 385.5,255.5C 384.5,255.333 383.5,255.167 382.5,255C 384.717,251.542 387.383,248.542 390.5,246C 401.296,243.136 411.963,240.303 422.5,237.5 Z"/></g>
<g><path style="opacity:1" fill="#de1f44" d="M 230.5,238.5 C 243.628,240.759 256.628,243.592 269.5,247C 271.363,249.364 273.029,251.864 274.5,254.5C 272.926,255.631 271.259,255.798 269.5,255C 268.167,253.667 266.833,252.333 265.5,251C 255.227,248.015 244.894,245.181 234.5,242.5C 232.647,243.189 231.481,244.522 231,246.5C 230.503,243.854 230.336,241.187 230.5,238.5 Z"/></g>
<g><path style="opacity:0.104" fill="#000000" d="M 90.5,239.5 C 90.8333,239.5 91.1667,239.5 91.5,239.5C 91.5,240.167 91.5,240.833 91.5,241.5C 81.5541,243.475 71.2208,244.142 60.5,243.5C 70.3194,242.506 80.3194,242.173 90.5,242.5C 90.5,241.5 90.5,240.5 90.5,239.5 Z"/></g>
<g><path style="opacity:0.106" fill="#000000" d="M 545.5,240.5 C 545.833,240.5 546.167,240.5 546.5,240.5C 556.292,242.158 566.292,243.158 576.5,243.5C 566.167,243.5 555.833,243.5 545.5,243.5C 545.5,242.5 545.5,241.5 545.5,240.5 Z"/></g>
<g><path style="opacity:0.846" fill="#888888" d="M 91.5,241.5 C 92.404,242.209 92.7373,243.209 92.5,244.5C 80.8333,244.5 69.1667,244.5 57.5,244.5C 58.209,243.596 59.209,243.263 60.5,243.5C 71.2208,244.142 81.5541,243.475 91.5,241.5 Z"/></g>
<g><path style="opacity:0.847" fill="#858585" d="M 545.5,240.5 C 545.5,241.5 545.5,242.5 545.5,243.5C 555.833,243.5 566.167,243.5 576.5,243.5C 577.791,243.263 578.791,243.596 579.5,244.5C 567.833,244.5 556.167,244.5 544.5,244.5C 544.232,242.901 544.566,241.568 545.5,240.5 Z"/></g>
<g><path style="opacity:0.306" fill="#2a2a2a" d="M 584.5,248.5 C 585.906,248.973 586.573,249.973 586.5,251.5C 586.167,251.5 585.833,251.5 585.5,251.5C 584.89,250.609 584.557,249.609 584.5,248.5 Z"/></g>
<g><path style="opacity:1" fill="#8b8b8b" d="M 57.5,244.5 C 55.8729,246.63 54.0396,248.63 52,250.5C 51.5,307.166 51.3333,363.832 51.5,420.5C 51.1667,420.5 50.8333,420.5 50.5,420.5C 49.3348,364.668 49.1682,308.668 50,252.5C 51.3202,248.681 53.8202,246.015 57.5,244.5 Z"/></g>
<g><path style="opacity:1" fill="#8f8f98" d="M 132.5,278.5 C 119.833,278.5 107.167,278.5 94.5,278.5C 94.5,286.167 94.5,293.833 94.5,301.5C 93.5076,293.684 93.1743,285.684 93.5,277.5C 106.677,277.171 119.677,277.505 132.5,278.5 Z"/></g>
<g><path style="opacity:1" fill="#bdbdc2" d="M 203.5,315.5 C 203.5,303.167 203.5,290.833 203.5,278.5C 186.833,278.5 170.167,278.5 153.5,278.5C 153.5,285.5 153.5,292.5 153.5,299.5C 152.508,292.352 152.175,285.019 152.5,277.5C 169.833,277.5 187.167,277.5 204.5,277.5C 204.829,290.344 204.495,303.011 203.5,315.5 Z"/></g>
<g><path style="opacity:1" fill="#bbbbc0" d="M 301.5,297.5 C 302.473,299.948 302.806,302.615 302.5,305.5C 306.5,305.5 310.5,305.5 314.5,305.5C 314.5,296.5 314.5,287.5 314.5,278.5C 295.833,278.5 277.167,278.5 258.5,278.5C 258.5,287.833 258.5,297.167 258.5,306.5C 257.506,297.014 257.173,287.348 257.5,277.5C 276.833,277.5 296.167,277.5 315.5,277.5C 315.5,287.167 315.5,296.833 315.5,306.5C 310.833,306.5 306.167,306.5 301.5,306.5C 301.5,303.5 301.5,300.5 301.5,297.5 Z"/></g>
<g><path style="opacity:1" fill="#c5c5c9" d="M 362.5,308.5 C 362.5,298.5 362.5,288.5 362.5,278.5C 347.833,278.5 333.167,278.5 318.5,278.5C 318.5,284.5 318.5,290.5 318.5,296.5C 319.791,296.263 320.791,296.596 321.5,297.5C 320.167,297.5 318.833,297.5 317.5,297.5C 317.5,290.833 317.5,284.167 317.5,277.5C 332.833,277.5 348.167,277.5 363.5,277.5C 363.828,288.014 363.494,298.347 362.5,308.5 Z"/></g>
<g><path style="opacity:1" fill="#b7b7b7" d="M 206.5,298.5 C 206.232,296.901 206.566,295.568 207.5,294.5C 207.351,295.552 207.517,296.552 208,297.5C 209.358,289.603 213.524,283.77 220.5,280C 231.588,276.882 241.921,278.382 251.5,284.5C 252.496,290.798 252.83,297.132 252.5,303.5C 248.167,303.5 243.833,303.5 239.5,303.5C 238.707,298.224 235.707,296.391 230.5,298C 227.191,301.077 226.691,304.577 229,308.5C 233.422,311.964 238.256,314.797 243.5,317C 245.973,318.561 247.973,320.561 249.5,323C 236.487,323.833 223.487,323.666 210.5,322.5C 209.401,314.199 208.067,306.199 206.5,298.5 Z"/></g>
<g><path style="opacity:1" fill="#b8b8b8" d="M 389.5,303.5 C 389.5,317.5 389.5,331.5 389.5,345.5C 388.669,332.006 388.169,318.339 388,304.5C 387.5,310.825 387.334,317.158 387.5,323.5C 380.5,323.5 373.5,323.5 366.5,323.5C 366.806,320.615 366.473,317.948 365.5,315.5C 365.194,312.615 365.527,309.948 366.5,307.5C 366.338,309.527 366.505,311.527 367,313.5C 367.086,301.558 371.252,291.391 379.5,283C 391.53,276.263 402.697,277.429 413,286.5C 419.429,297.89 422.262,310.223 421.5,323.5C 414.5,323.5 407.5,323.5 400.5,323.5C 400.941,314.724 400.441,306.058 399,297.5C 395.381,294.657 392.048,294.99 389,298.5C 388.22,300.387 388.387,302.054 389.5,303.5 Z"/></g>
<g><path style="opacity:1" fill="#b8b8b8" d="M 426.5,339.5 C 425.167,329.833 425.167,320.167 426.5,310.5C 426.336,313.187 426.503,315.854 427,318.5C 427.915,310.011 429.581,301.678 432,293.5C 440.213,278.652 452.046,274.818 467.5,282C 476.415,289.72 480.915,299.554 481,311.5C 481.499,316.155 481.666,320.821 481.5,325.5C 474.833,325.5 468.167,325.5 461.5,325.5C 461.666,317.826 461.5,310.159 461,302.5C 459.789,297.29 456.623,295.456 451.5,297C 450.299,297.903 449.465,299.069 449,300.5C 448.5,308.827 448.334,317.16 448.5,325.5C 441.167,325.5 433.833,325.5 426.5,325.5C 426.5,330.167 426.5,334.833 426.5,339.5 Z"/></g>
<g><path style="opacity:1" fill="#c7c7cb" d="M 505.5,277.5 C 505.5,277.833 505.5,278.167 505.5,278.5C 499.167,278.5 492.833,278.5 486.5,278.5C 486.5,288.833 486.5,299.167 486.5,309.5C 485.506,299.013 485.172,288.346 485.5,277.5C 492.167,277.5 498.833,277.5 505.5,277.5 Z"/></g>
<g><path style="opacity:1" fill="#909199" d="M 505.5,278.5 C 505.5,278.167 505.5,277.833 505.5,277.5C 518.167,277.5 530.833,277.5 543.5,277.5C 543.828,289.345 543.495,301.012 542.5,312.5C 542.5,301.167 542.5,289.833 542.5,278.5C 530.167,278.5 517.833,278.5 505.5,278.5 Z"/></g>
<g><path style="opacity:1" fill="#b7b7b7" d="M 147.5,293.5 C 148.404,294.209 148.737,295.209 148.5,296.5C 148.52,305.124 146.686,313.458 143,321.5C 140.933,324.07 138.433,326.07 135.5,327.5C 134.571,328.689 134.238,330.022 134.5,331.5C 122.833,331.5 111.167,331.5 99.5,331.5C 99.5,320.5 99.5,309.5 99.5,298.5C 98.1667,298.5 96.8333,298.5 95.5,298.5C 95.5,292.5 95.5,286.5 95.5,280.5C 108.171,280.333 120.838,280.5 133.5,281C 140.825,283.117 145.325,287.951 147,295.5C 147.464,294.906 147.631,294.239 147.5,293.5 Z"/></g>
<g><path style="opacity:1" fill="#b7b7b7" d="M 346.5,316.5 C 349.167,316.5 351.833,316.5 354.5,316.5C 354.819,321.363 354.486,326.03 353.5,330.5C 353.5,327.833 353.5,325.167 353.5,322.5C 343.5,322.5 333.5,322.5 323.5,322.5C 323.5,313.167 323.5,303.833 323.5,294.5C 322.167,294.5 320.833,294.5 319.5,294.5C 319.5,289.833 319.5,285.167 319.5,280.5C 333.5,280.5 347.5,280.5 361.5,280.5C 361.5,289.167 361.5,297.833 361.5,306.5C 358.167,306.5 354.833,306.5 351.5,306.5C 351.5,302.5 351.5,298.5 351.5,294.5C 348.167,294.5 344.833,294.5 341.5,294.5C 341.5,302.833 341.5,311.167 341.5,319.5C 345.555,319.824 349.555,319.491 353.5,318.5C 351.031,317.832 348.698,317.165 346.5,316.5 Z"/></g>
<g><path style="opacity:1" fill="#fbfbfb" d="M 362.5,308.5 C 358.167,308.5 353.833,308.5 349.5,308.5C 349.5,304.833 349.5,301.167 349.5,297.5C 347.167,297.5 344.833,297.5 342.5,297.5C 342.5,303.833 342.5,310.167 342.5,316.5C 343.833,316.5 345.167,316.5 346.5,316.5C 348.698,317.165 351.031,317.832 353.5,318.5C 349.555,319.491 345.555,319.824 341.5,319.5C 341.5,311.167 341.5,302.833 341.5,294.5C 344.833,294.5 348.167,294.5 351.5,294.5C 351.5,298.5 351.5,302.5 351.5,306.5C 354.833,306.5 358.167,306.5 361.5,306.5C 361.5,297.833 361.5,289.167 361.5,280.5C 347.5,280.5 333.5,280.5 319.5,280.5C 319.5,285.167 319.5,289.833 319.5,294.5C 320.833,294.5 322.167,294.5 323.5,294.5C 323.5,303.833 323.5,313.167 323.5,322.5C 333.5,322.5 343.5,322.5 353.5,322.5C 353.5,325.167 353.5,327.833 353.5,330.5C 349.833,330.5 346.167,330.5 342.5,330.5C 342.5,337.167 342.5,343.833 342.5,350.5C 345.833,350.5 349.167,350.5 352.5,350.5C 352.5,357.167 352.5,363.833 352.5,370.5C 340.854,369.667 329.187,369.334 317.5,369.5C 317.5,363.167 317.5,356.833 317.5,350.5C 318.833,350.5 320.167,350.5 321.5,350.5C 321.5,332.833 321.5,315.167 321.5,297.5C 320.791,296.596 319.791,296.263 318.5,296.5C 318.5,290.5 318.5,284.5 318.5,278.5C 333.167,278.5 347.833,278.5 362.5,278.5C 362.5,288.5 362.5,298.5 362.5,308.5 Z"/></g>
<g><path style="opacity:1" fill="#f9f9f9" d="M 203.5,315.5 C 202.167,315.5 200.833,315.5 199.5,315.5C 195.5,315.5 191.5,315.5 187.5,315.5C 187.822,309.642 187.489,303.975 186.5,298.5C 183.833,298.5 181.167,298.5 178.5,298.5C 178.5,305.167 178.5,311.833 178.5,318.5C 180.5,318.5 182.5,318.5 184.5,318.5C 184.5,323.5 184.5,328.5 184.5,333.5C 182.5,333.5 180.5,333.5 178.5,333.5C 178.5,341.167 178.5,348.833 178.5,356.5C 181.249,356.726 183.916,356.393 186.5,355.5C 187.497,348.866 187.83,342.2 187.5,335.5C 188.833,335.5 190.167,335.5 191.5,335.5C 195.5,335.5 199.5,335.5 203.5,335.5C 204.12,349.08 203.453,362.413 201.5,375.5C 185.074,376.309 168.74,377.976 152.5,380.5C 152.5,373.167 152.5,365.833 152.5,358.5C 153.833,358.5 155.167,358.5 156.5,358.5C 156.5,338.833 156.5,319.167 156.5,299.5C 155.5,299.5 154.5,299.5 153.5,299.5C 153.5,292.5 153.5,285.5 153.5,278.5C 170.167,278.5 186.833,278.5 203.5,278.5C 203.5,290.833 203.5,303.167 203.5,315.5 Z"/></g>
<g><path style="opacity:1" fill="#b7b7b7" d="M 154.5,280.5 C 170.5,280.5 186.5,280.5 202.5,280.5C 202.5,291.5 202.5,302.5 202.5,313.5C 197.833,313.5 193.167,313.5 188.5,313.5C 188.5,307.833 188.5,302.167 188.5,296.5C 184.5,296.5 180.5,296.5 176.5,296.5C 176.5,304.833 176.5,313.167 176.5,321.5C 178.833,321.5 181.167,321.5 183.5,321.5C 183.5,323.5 183.5,325.5 183.5,327.5C 175.167,327.5 166.833,327.5 158.5,327.5C 158.5,317.167 158.5,306.833 158.5,296.5C 157.167,296.5 155.833,296.5 154.5,296.5C 154.5,291.167 154.5,285.833 154.5,280.5 Z"/></g>
<g><path style="opacity:1" fill="#5d5e6a" d="M 186.5,298.5 C 187.489,303.975 187.822,309.642 187.5,315.5C 191.5,315.5 195.5,315.5 199.5,315.5C 195.366,316.485 191.032,316.818 186.5,316.5C 186.5,310.5 186.5,304.5 186.5,298.5 Z"/></g>
<g><path style="opacity:1" fill="#fbfbfb" d="M 365.5,315.5 C 366.473,317.948 366.806,320.615 366.5,323.5C 373.5,323.5 380.5,323.5 387.5,323.5C 387.334,317.158 387.5,310.825 388,304.5C 388.169,318.339 388.669,332.006 389.5,345.5C 389.983,351.877 392.816,353.543 398,350.5C 399.124,341.738 399.624,332.905 399.5,324C 399.333,316.167 399.167,308.333 399,300.5C 394.154,296.005 390.987,297.005 389.5,303.5C 388.387,302.054 388.22,300.387 389,298.5C 392.048,294.99 395.381,294.657 399,297.5C 400.441,306.058 400.941,314.724 400.5,323.5C 407.5,323.5 414.5,323.5 421.5,323.5C 422.262,310.223 419.429,297.89 413,286.5C 402.697,277.429 391.53,276.263 379.5,283C 371.252,291.391 367.086,301.558 367,313.5C 366.505,311.527 366.338,309.527 366.5,307.5C 369.406,280.9 383.406,271.733 408.5,280C 417.732,288.006 422.565,298.173 423,310.5C 424.578,326.452 423.245,342.119 419,357.5C 412.386,372.305 401.219,377.138 385.5,372C 377.937,368.77 372.771,363.27 370,355.5C 366.004,342.469 364.504,329.136 365.5,315.5 Z"/></g>
<g><path style="opacity:1" fill="#252635" d="M 389.5,345.5 C 389.5,331.5 389.5,317.5 389.5,303.5C 390.987,297.005 394.154,296.005 399,300.5C 399.167,308.333 399.333,316.167 399.5,324C 399.624,332.905 399.124,341.738 398,350.5C 392.816,353.543 389.983,351.877 389.5,345.5 Z"/></g>
<g><path style="opacity:1" fill="#909199" d="M 529.5,301.5 C 528.167,301.5 526.833,301.5 525.5,301.5C 525.5,322.167 525.5,342.833 525.5,363.5C 524.503,342.673 524.169,321.673 524.5,300.5C 526.415,300.216 528.081,300.549 529.5,301.5 Z"/></g>
<g><path style="opacity:1" fill="#f9f9fa" d="M 426.5,339.5 C 426.5,334.833 426.5,330.167 426.5,325.5C 433.833,325.5 441.167,325.5 448.5,325.5C 448.334,317.16 448.5,308.827 449,300.5C 449.465,299.069 450.299,297.903 451.5,297C 456.623,295.456 459.789,297.29 461,302.5C 461.5,310.159 461.666,317.826 461.5,325.5C 468.167,325.5 474.833,325.5 481.5,325.5C 481.666,320.821 481.499,316.155 481,311.5C 480.915,299.554 476.415,289.72 467.5,282C 452.046,274.818 440.213,278.652 432,293.5C 429.581,301.678 427.915,310.011 427,318.5C 426.503,315.854 426.336,313.187 426.5,310.5C 426.842,298.291 431.509,288.124 440.5,280C 456.577,272.36 469.077,276.193 478,291.5C 482.593,303.228 484.427,315.395 483.5,328C 484.703,342.565 482.203,356.399 476,369.5C 467.955,378.441 458.122,380.941 446.5,377C 432.918,368.344 426.251,355.844 426.5,339.5 Z"/></g>
<g><path style="opacity:1" fill="#252636" d="M 452.5,298.5 C 455.325,298.081 457.491,299.081 459,301.5C 459.667,318.833 459.667,336.167 459,353.5C 455.155,357.675 452.155,357.008 450,351.5C 449.333,335.167 449.333,318.833 450,302.5C 450.662,301.016 451.496,299.683 452.5,298.5 Z"/></g>
<g><path style="opacity:1" fill="#a9aab0" d="M 499.5,300.5 C 499.5,303.833 499.5,307.167 499.5,310.5C 494.968,310.818 490.634,310.485 486.5,309.5C 490.634,310.485 494.968,310.818 499.5,310.5C 499.5,307.167 499.5,303.833 499.5,300.5 Z"/></g>
<g><path style="opacity:1" fill="#f9f9fa" d="M 207.5,369.5 C 207.5,361.5 207.5,353.5 207.5,345.5C 209.735,345.795 211.735,345.461 213.5,344.5C 216.833,344.5 220.167,344.5 223.5,344.5C 223.86,350.264 226.693,351.931 232,349.5C 233.292,345.373 232.125,342.206 228.5,340C 210.354,332.151 203.02,318.317 206.5,298.5C 208.067,306.199 209.401,314.199 210.5,322.5C 223.487,323.666 236.487,323.833 249.5,323C 247.973,320.561 245.973,318.561 243.5,317C 238.256,314.797 233.422,311.964 229,308.5C 226.691,304.577 227.191,301.077 230.5,298C 235.707,296.391 238.707,298.224 239.5,303.5C 243.833,303.5 248.167,303.5 252.5,303.5C 252.83,297.132 252.496,290.798 251.5,284.5C 241.921,278.382 231.588,276.882 220.5,280C 213.524,283.77 209.358,289.603 208,297.5C 207.517,296.552 207.351,295.552 207.5,294.5C 210.22,281.368 218.387,275.034 232,275.5C 239.889,275.949 246.889,278.615 253,283.5C 253.5,290.826 253.666,298.159 253.5,305.5C 248.5,305.5 243.5,305.5 238.5,305.5C 238.352,300.85 236.019,299.017 231.5,300C 229.016,302.284 228.849,304.784 231,307.5C 255.257,317.904 262.591,335.571 253,360.5C 249.316,367.762 243.482,372.262 235.5,374C 229.5,374.667 223.5,374.667 217.5,374C 213.73,373.278 210.397,371.778 207.5,369.5 Z"/></g>
<g><path style="opacity:1" fill="#f5f5f6" d="M 301.5,297.5 C 300.167,297.5 298.833,297.5 297.5,297.5C 297.5,315.167 297.5,332.833 297.5,350.5C 299.167,350.5 300.833,350.5 302.5,350.5C 302.5,357.167 302.5,363.833 302.5,370.5C 291.833,370.5 281.167,370.5 270.5,370.5C 270.5,363.833 270.5,357.167 270.5,350.5C 272.167,350.5 273.833,350.5 275.5,350.5C 275.5,332.833 275.5,315.167 275.5,297.5C 274.167,297.5 272.833,297.5 271.5,297.5C 271.5,300.5 271.5,303.5 271.5,306.5C 267.167,306.5 262.833,306.5 258.5,306.5C 258.5,297.167 258.5,287.833 258.5,278.5C 277.167,278.5 295.833,278.5 314.5,278.5C 314.5,287.5 314.5,296.5 314.5,305.5C 310.5,305.5 306.5,305.5 302.5,305.5C 302.806,302.615 302.473,299.948 301.5,297.5 Z"/></g>
<g><path style="opacity:1" fill="#b7b7b7" d="M 259.5,280.5 C 277.5,280.5 295.5,280.5 313.5,280.5C 313.5,288.167 313.5,295.833 313.5,303.5C 310.167,303.5 306.833,303.5 303.5,303.5C 303.5,300.5 303.5,297.5 303.5,294.5C 300.833,294.5 298.167,294.5 295.5,294.5C 295.5,303.833 295.5,313.167 295.5,322.5C 289.5,322.5 283.5,322.5 277.5,322.5C 277.5,313.167 277.5,303.833 277.5,294.5C 274.833,294.5 272.167,294.5 269.5,294.5C 269.5,297.833 269.5,301.167 269.5,304.5C 266.167,304.5 262.833,304.5 259.5,304.5C 259.5,296.5 259.5,288.5 259.5,280.5 Z"/></g>
<g><path style="opacity:1" fill="#f9f9fa" d="M 132.5,278.5 C 141.139,279.806 146.139,284.806 147.5,293.5C 147.631,294.239 147.464,294.906 147,295.5C 145.325,287.951 140.825,283.117 133.5,281C 120.838,280.5 108.171,280.333 95.5,280.5C 95.5,286.5 95.5,292.5 95.5,298.5C 96.8333,298.5 98.1667,298.5 99.5,298.5C 99.5,309.5 99.5,320.5 99.5,331.5C 111.167,331.5 122.833,331.5 134.5,331.5C 134.238,330.022 134.571,328.689 135.5,327.5C 138.433,326.07 140.933,324.07 143,321.5C 146.686,313.458 148.52,305.124 148.5,296.5C 149.646,306.013 148.146,315.013 144,323.5C 141.624,326.045 139.124,328.378 136.5,330.5C 143.555,332.721 148.055,337.388 150,344.5C 151.507,354.584 150.173,364.251 146,373.5C 141.416,379.084 135.583,382.584 128.5,384C 118.168,385.583 107.835,387.083 97.5,388.5C 96.5,388.5 95.5,388.5 94.5,388.5C 94.5,380.833 94.5,373.167 94.5,365.5C 95.5,365.5 96.5,365.5 97.5,365.5C 97.5,344.167 97.5,322.833 97.5,301.5C 96.5,301.5 95.5,301.5 94.5,301.5C 94.5,293.833 94.5,286.167 94.5,278.5C 107.167,278.5 119.833,278.5 132.5,278.5 Z"/></g>
<g><path style="opacity:1" fill="#f6f6f7" d="M 117.5,297.5 C 121.007,296.994 124.174,297.66 127,299.5C 130.333,307.5 130.333,315.5 127,323.5C 124.096,325.227 120.93,325.893 117.5,325.5C 117.5,316.167 117.5,306.833 117.5,297.5 Z"/></g>
<g><path style="opacity:1" fill="#252636" d="M 119.5,300.5 C 121.527,300.338 123.527,300.505 125.5,301C 127.992,307.709 128.159,314.543 126,321.5C 125.329,322.252 124.496,322.586 123.5,322.5C 122.167,322.5 120.833,322.5 119.5,322.5C 119.5,315.167 119.5,307.833 119.5,300.5 Z"/></g>
<g><path style="opacity:1" fill="#919199" d="M 119.5,300.5 C 119.5,307.833 119.5,315.167 119.5,322.5C 120.833,322.5 122.167,322.5 123.5,322.5C 122.081,323.451 120.415,323.784 118.5,323.5C 118.175,315.648 118.508,307.982 119.5,300.5 Z"/></g>
<g><path style="opacity:1" fill="#fbfbfb" d="M 505.5,278.5 C 517.833,278.5 530.167,278.5 542.5,278.5C 542.5,289.833 542.5,301.167 542.5,312.5C 539.5,312.5 536.5,312.5 533.5,312.5C 532.791,311.596 531.791,311.263 530.5,311.5C 530.813,307.958 530.479,304.625 529.5,301.5C 528.081,300.549 526.415,300.216 524.5,300.5C 524.169,321.673 524.503,342.673 525.5,363.5C 527.117,364.038 528.784,364.371 530.5,364.5C 530.5,372.167 530.5,379.833 530.5,387.5C 519.861,385.647 509.195,383.98 498.5,382.5C 498.5,375.167 498.5,367.833 498.5,360.5C 500.167,360.5 501.833,360.5 503.5,360.5C 503.5,340.5 503.5,320.5 503.5,300.5C 502.167,300.5 500.833,300.5 499.5,300.5C 498.523,303.287 498.19,306.287 498.5,309.5C 494.5,309.5 490.5,309.5 486.5,309.5C 486.5,299.167 486.5,288.833 486.5,278.5C 492.833,278.5 499.167,278.5 505.5,278.5 Z"/></g>
<g><path style="opacity:1" fill="#8e8f97" d="M 529.5,301.5 C 530.479,304.625 530.813,307.958 530.5,311.5C 531.791,311.263 532.791,311.596 533.5,312.5C 532.167,312.5 530.833,312.5 529.5,312.5C 529.5,308.833 529.5,305.167 529.5,301.5 Z"/></g>
<g><path style="opacity:1" fill="#b7b7b7" d="M 487.5,280.5 C 505.5,280.5 523.5,280.5 541.5,280.5C 541.5,290.167 541.5,299.833 541.5,309.5C 538.167,309.5 534.833,309.5 531.5,309.5C 531.5,305.833 531.5,302.167 531.5,298.5C 528.833,298.5 526.167,298.5 523.5,298.5C 523.5,309.167 523.5,319.833 523.5,330.5C 517.5,330.5 511.5,330.5 505.5,330.5C 505.5,319.5 505.5,308.5 505.5,297.5C 502.833,297.5 500.167,297.5 497.5,297.5C 497.5,300.833 497.5,304.167 497.5,307.5C 494.167,307.5 490.833,307.5 487.5,307.5C 487.5,298.5 487.5,289.5 487.5,280.5 Z"/></g>
<g><path style="opacity:1" fill="#b9b9bf" d="M 191.5,335.5 C 195.634,334.515 199.968,334.182 204.5,334.5C 204.5,348.167 204.5,361.833 204.5,375.5C 203.5,375.5 202.5,375.5 201.5,375.5C 203.453,362.413 204.12,349.08 203.5,335.5C 199.5,335.5 195.5,335.5 191.5,335.5 Z"/></g>
<g><path style="opacity:1" fill="#252636" d="M 119.5,338.5 C 122.365,338.055 124.865,338.722 127,340.5C 127.667,346.833 127.667,353.167 127,359.5C 125.152,362.041 122.652,363.041 119.5,362.5C 119.5,354.5 119.5,346.5 119.5,338.5 Z"/></g>
<g><path style="opacity:1" fill="#c5c5c9" d="M 213.5,344.5 C 211.735,345.461 209.735,345.795 207.5,345.5C 207.5,353.5 207.5,361.5 207.5,369.5C 206.507,361.35 206.174,353.017 206.5,344.5C 208.833,344.5 211.167,344.5 213.5,344.5 Z"/></g>
<g><path style="opacity:1" fill="#909199" d="M 94.5,365.5 C 94.5,373.167 94.5,380.833 94.5,388.5C 95.5,388.5 96.5,388.5 97.5,388.5C 96.4324,389.434 95.099,389.768 93.5,389.5C 93.1743,381.316 93.5076,373.316 94.5,365.5 Z"/></g>
<g><path style="opacity:0.784" fill="#787878" d="M 585.5,251.5 C 585.833,251.5 586.167,251.5 586.5,251.5C 587.833,308.167 587.833,364.833 586.5,421.5C 586.167,421.5 585.833,421.5 585.5,421.5C 585.5,364.833 585.5,308.167 585.5,251.5 Z"/></g>
<g><path style="opacity:1" fill="#f11d45" d="M 309.5,408.5 C 309.783,409.289 310.283,409.956 311,410.5C 311.499,405.177 311.666,399.844 311.5,394.5C 314.833,394.5 318.167,394.5 321.5,394.5C 321.5,405.167 321.5,415.833 321.5,426.5C 317.818,426.665 314.152,426.499 310.5,426C 307.366,421.557 304.366,417.057 301.5,412.5C 301.217,411.711 300.717,411.044 300,410.5C 299.501,415.823 299.334,421.156 299.5,426.5C 296.5,426.5 293.5,426.5 290.5,426.5C 290.806,423.615 290.473,420.948 289.5,418.5C 289.5,410.5 289.5,402.5 289.5,394.5C 293.226,394.177 296.893,394.511 300.5,395.5C 303.757,399.688 306.757,404.021 309.5,408.5 Z"/></g>
<g><path style="opacity:1" fill="#881f3c" d="M 311.5,394.5 C 311.666,399.844 311.499,405.177 311,410.5C 310.283,409.956 309.783,409.289 309.5,408.5C 310.167,403.833 310.833,399.167 311.5,394.5 Z"/></g>
<g><path style="opacity:1" fill="#ed1d45" d="M 334.5,426.5 C 330.958,426.813 327.625,426.479 324.5,425.5C 327.97,415.091 331.636,404.758 335.5,394.5C 339.884,394.174 344.217,394.508 348.5,395.5C 352.364,405.758 356.03,416.091 359.5,426.5C 355.893,427.489 352.226,427.823 348.5,427.5C 348.579,426.07 348.246,424.736 347.5,423.5C 343.5,422.167 339.5,422.167 335.5,423.5C 334.873,424.417 334.539,425.417 334.5,426.5 Z"/></g>
<g><path style="opacity:1" fill="#ee1d45" d="M 253.5,428.5 C 250.302,429.036 247.635,428.369 245.5,426.5C 247.817,416.379 250.65,406.379 254,396.5C 258.401,395.533 262.901,395.2 267.5,395.5C 271.5,406.167 275.5,416.833 279.5,427.5C 275.833,427.5 272.167,427.5 268.5,427.5C 268.67,426.178 268.337,425.011 267.5,424C 263.833,423.333 260.167,423.333 256.5,424C 256.085,426.026 255.085,427.526 253.5,428.5 Z"/></g>
<g><path style="opacity:1" fill="#ed1d45" d="M 381.5,418.5 C 381.217,417.711 380.717,417.044 380,416.5C 379.502,419.482 379.335,422.482 379.5,425.5C 379.5,426.5 379.5,427.5 379.5,428.5C 376.167,428.5 372.833,428.5 369.5,428.5C 369.944,417.504 370.278,406.504 370.5,395.5C 377.23,395.226 383.897,395.726 390.5,397C 397.303,399.132 399.803,403.632 398,410.5C 396.328,413.337 394.161,415.67 391.5,417.5C 393.441,421.048 395.107,424.714 396.5,428.5C 393.156,429.757 389.823,429.757 386.5,428.5C 384.295,425.423 382.628,422.09 381.5,418.5 Z"/></g>
<g><path style="opacity:1" fill="#ed1d45" d="M 225.5,397.5 C 227.5,397.5 229.5,397.5 231.5,397.5C 232.097,405.153 232.597,412.82 233,420.5C 236.394,421.456 239.894,421.789 243.5,421.5C 243.5,424.167 243.5,426.833 243.5,429.5C 236.814,429.527 230.148,429.861 223.5,430.5C 222.668,421.514 222.001,412.514 221.5,403.5C 221.5,401.833 221.5,400.167 221.5,398.5C 223.099,398.768 224.432,398.434 225.5,397.5 Z"/></g>
<g><path style="opacity:1" fill="#ed1d45" d="M 402.5,397.5 C 409.822,398.038 417.155,398.371 424.5,398.5C 424.5,401.167 424.5,403.833 424.5,406.5C 420.5,406.5 416.5,406.5 412.5,406.5C 412.5,407.833 412.5,409.167 412.5,410.5C 415.833,410.5 419.167,410.5 422.5,410.5C 422.425,413.206 422.092,415.873 421.5,418.5C 418.14,418.384 414.807,418.051 411.5,417.5C 411.5,419.167 411.5,420.833 411.5,422.5C 415.179,422.724 418.846,423.058 422.5,423.5C 422.5,426.167 422.5,428.833 422.5,431.5C 415.123,431.27 407.79,430.604 400.5,429.5C 400.977,418.82 401.644,408.153 402.5,397.5 Z"/></g>
<g><path style="opacity:1" fill="#ee1d45" d="M 196.5,399.5 C 211.854,398.355 219.021,405.355 218,420.5C 212.403,432.367 203.57,435.534 191.5,430C 185.348,424.878 183.182,418.378 185,410.5C 187.437,405.226 191.271,401.56 196.5,399.5 Z"/></g>
<g><path style="opacity:1" fill="#ec1d45" d="M 428.5,399.5 C 435.226,399.873 441.893,400.706 448.5,402C 456.871,405.909 460.037,412.409 458,421.5C 454.89,429.728 448.89,433.728 440,433.5C 435.23,433.238 430.563,432.571 426,431.5C 426.986,420.92 427.819,410.253 428.5,399.5 Z"/></g>
<g><path style="opacity:1" fill="#8e203d" d="M 225.5,397.5 C 224.432,398.434 223.099,398.768 221.5,398.5C 221.5,400.167 221.5,401.833 221.5,403.5C 220.539,401.735 220.205,399.735 220.5,397.5C 222.167,397.5 223.833,397.5 225.5,397.5 Z"/></g>
<g><path style="opacity:1" fill="#ed1d45" d="M 164.5,403.5 C 170.694,402.406 175.861,404.072 180,408.5C 180.979,412.295 180.146,415.628 177.5,418.5C 182.921,422.328 183.921,427.161 180.5,433C 172.523,436.202 164.19,437.702 155.5,437.5C 154.26,426.823 152.927,416.156 151.5,405.5C 156.01,405.116 160.343,404.449 164.5,403.5 Z"/></g>
<g><path style="opacity:1" fill="#ec1d45" d="M 463.5,403.5 C 471.149,404.355 478.816,405.021 486.5,405.5C 485.908,408.127 485.575,410.794 485.5,413.5C 481.563,413.793 477.73,413.46 474,412.5C 473.219,413.944 473.386,415.277 474.5,416.5C 477.084,417.393 479.751,417.726 482.5,417.5C 482.5,420.167 482.5,422.833 482.5,425.5C 478.846,425.058 475.179,424.724 471.5,424.5C 471.5,425.833 471.5,427.167 471.5,428.5C 475.119,429.244 478.785,429.577 482.5,429.5C 482.663,431.857 482.497,434.19 482,436.5C 481.612,437.428 480.945,438.095 480,438.5C 473.477,437.609 466.977,436.609 460.5,435.5C 461.632,424.847 462.632,414.18 463.5,403.5 Z"/></g>
<g><path style="opacity:1" fill="#292434" d="M 381.5,404.5 C 386.509,403.5 388.176,405.167 386.5,409.5C 384.833,409.5 383.167,409.5 381.5,409.5C 381.5,407.833 381.5,406.167 381.5,404.5 Z"/></g>
<g><path style="opacity:1" fill="#9c9da4" d="M 118.5,405.5 C 118.56,404.957 118.893,404.624 119.5,404.5C 120.167,432.664 120.833,460.664 121.5,488.5C 121.013,489.473 120.513,490.473 120,491.5C 119.832,462.664 119.332,433.997 118.5,405.5 Z"/></g>
<g><path style="opacity:1" fill="#9d9ea5" d="M 517.5,405.5 C 517.667,434.835 517.5,464.169 517,493.5C 516.209,492.255 515.709,490.922 515.5,489.5C 516.167,461.5 516.833,433.5 517.5,405.5 Z"/></g>
<g><path style="opacity:1" fill="#6d223a" d="M 381.5,404.5 C 381.5,406.167 381.5,407.833 381.5,409.5C 383.167,409.5 384.833,409.5 386.5,409.5C 384.735,410.461 382.735,410.795 380.5,410.5C 380.205,408.265 380.539,406.265 381.5,404.5 Z"/></g>
<g><path style="opacity:1" fill="#362435" d="M 341.5,406.5 C 343.267,408.792 344.267,411.458 344.5,414.5C 342.473,414.662 340.473,414.495 338.5,414C 339.601,411.528 340.601,409.028 341.5,406.5 Z"/></g>
<g><path style="opacity:1" fill="#3a2535" d="M 260.5,407.5 C 262.19,409.504 263.524,411.837 264.5,414.5C 262.5,415.833 260.5,415.833 258.5,414.5C 259.325,412.199 259.992,409.865 260.5,407.5 Z"/></g>
<g><path style="opacity:1" fill="#2c2434" d="M 197.5,409.5 C 204.031,407.672 207.364,410.005 207.5,416.5C 207.619,420.883 205.453,423.216 201,423.5C 193.942,420.388 192.775,415.722 197.5,409.5 Z"/></g>
<g><path style="opacity:1" fill="#282434" d="M 438.5,409.5 C 446.379,409.216 449.212,412.883 447,420.5C 444.454,423.186 441.287,424.186 437.5,423.5C 437.669,418.819 438.002,414.152 438.5,409.5 Z"/></g>
<g><path style="opacity:1" fill="#242334" d="M 163.5,412.5 C 165.5,412.5 167.5,412.5 169.5,412.5C 169.241,416.068 167.241,417.401 163.5,416.5C 163.5,415.167 163.5,413.833 163.5,412.5 Z"/></g>
<g><path style="opacity:0.314" fill="#3f3f3f" d="M 50.5,420.5 C 50.8333,420.5 51.1667,420.5 51.5,420.5C 52.1667,422.167 52.8333,423.833 53.5,425.5C 51.2729,424.599 50.2729,422.933 50.5,420.5 Z"/></g>
<g><path style="opacity:1" fill="#9c1f3e" d="M 381.5,418.5 C 380.833,420.833 380.167,423.167 379.5,425.5C 379.335,422.482 379.502,419.482 380,416.5C 380.717,417.044 381.217,417.711 381.5,418.5 Z"/></g>
<g><path style="opacity:0.627" fill="#3d3d3d" d="M 541.5,422.5 C 552.185,424.37 562.852,426.37 573.5,428.5C 576.692,428.551 579.692,427.884 582.5,426.5C 580.407,428.767 577.741,430.1 574.5,430.5C 563.312,428.068 552.312,425.401 541.5,422.5 Z"/></g>
<g><path style="opacity:0.012" fill="#303030" d="M 585.5,421.5 C 585.833,421.5 586.167,421.5 586.5,421.5C 586.262,423.404 585.262,424.738 583.5,425.5C 583.733,423.938 584.4,422.605 585.5,421.5 Z"/></g>
<g><path style="opacity:1" fill="#352435" d="M 164.5,423.5 C 166.833,423.5 169.167,423.5 171.5,423.5C 171.714,425.144 171.38,426.644 170.5,428C 168.527,428.495 166.527,428.662 164.5,428.5C 164.5,426.833 164.5,425.167 164.5,423.5 Z"/></g>
<g><path style="opacity:0.137" fill="#313131" d="M 81.5,425.5 C 75.4084,427.608 69.075,429.274 62.5,430.5C 60.5784,430.199 58.9117,429.533 57.5,428.5C 65.6289,428.467 73.6289,427.467 81.5,425.5 Z"/></g>
<g><path style="opacity:1" fill="#981f3d" d="M 301.5,412.5 C 300.513,417.305 300.179,422.305 300.5,427.5C 296.833,427.5 293.167,427.5 289.5,427.5C 289.5,424.5 289.5,421.5 289.5,418.5C 290.473,420.948 290.806,423.615 290.5,426.5C 293.5,426.5 296.5,426.5 299.5,426.5C 299.334,421.156 299.501,415.823 300,410.5C 300.717,411.044 301.217,411.711 301.5,412.5 Z"/></g>
<g><path style="opacity:1" fill="#77213b" d="M 324.5,425.5 C 327.625,426.479 330.958,426.813 334.5,426.5C 330.981,427.808 327.315,427.808 323.5,426.5C 323.624,425.893 323.957,425.56 324.5,425.5 Z"/></g>
<g><path style="opacity:1" fill="#6f223a" d="M 245.5,426.5 C 247.635,428.369 250.302,429.036 253.5,428.5C 250.713,429.477 247.713,429.81 244.5,429.5C 244.263,428.209 244.596,427.209 245.5,426.5 Z"/></g>
<g><path style="opacity:0.698" fill="#525252" d="M 541.5,422.5 C 537.738,422.348 534.072,421.681 530.5,420.5C 529.667,446.827 529.167,473.16 529,499.5C 528.623,500.942 527.79,501.942 526.5,502.5C 526.709,501.078 527.209,499.745 528,498.5C 528.5,472.169 528.667,445.835 528.5,419.5C 533.092,419.882 537.425,420.882 541.5,422.5 Z"/></g>
<g><path style="opacity:1" fill="#cb1c46" d="M 273.5,449.5 C 282.652,448.506 291.985,448.173 301.5,448.5C 295.989,468.842 291.655,489.175 288.5,509.5C 287.737,510.268 286.737,510.768 285.5,511C 286.381,511.708 287.047,512.542 287.5,513.5C 282.963,528.16 279.296,543.16 276.5,558.5C 261.923,551.717 248.923,542.717 237.5,531.5C 245.207,518.425 252.207,504.758 258.5,490.5C 258.957,489.702 259.624,489.369 260.5,489.5C 259.566,491.239 259.566,492.905 260.5,494.5C 263.833,492.5 267.167,490.5 270.5,488.5C 273.919,490.626 277.419,492.626 281,494.5C 280.662,489.806 280.828,485.139 281.5,480.5C 289.732,474.471 288.398,471.638 277.5,472C 275.109,468.717 273.109,465.217 271.5,461.5C 274.184,457.98 276.518,454.147 278.5,450C 276.866,449.506 275.199,449.34 273.5,449.5 Z"/></g>
<g><path style="opacity:1" fill="#f31e46" d="M 301.5,448.5 C 308.167,448.5 314.833,448.5 321.5,448.5C 321.829,462.344 321.496,476.01 320.5,489.5C 320.083,487.355 319.083,486.688 317.5,487.5C 314.294,494.078 310.961,500.578 307.5,507C 301.176,507.975 294.843,508.808 288.5,509.5C 291.655,489.175 295.989,468.842 301.5,448.5 Z"/></g>
<g><path style="opacity:1" fill="#cc1c46" d="M 321.5,448.5 C 333.012,448.172 344.346,448.505 355.5,449.5C 351.167,449.5 346.833,449.5 342.5,449.5C 344.003,456.338 345.67,463.171 347.5,470C 347.684,471.376 348.351,472.209 349.5,472.5C 349.167,473.167 348.833,473.833 348.5,474.5C 354.415,502.025 360.748,529.358 367.5,556.5C 352.576,564.259 337.243,571.259 321.5,577.5C 321.5,565.5 321.5,553.5 321.5,541.5C 327.423,544.24 333.257,547.24 339,550.5C 338.686,542.751 337.519,535.084 335.5,527.5C 340.652,521.848 345.985,516.348 351.5,511C 344.277,509.111 336.943,507.777 329.5,507C 326.359,501.218 323.359,495.385 320.5,489.5C 321.496,476.01 321.829,462.344 321.5,448.5 Z"/></g>
<g><path style="opacity:1" fill="#f31e46" d="M 273.5,449.5 C 275.199,449.34 276.866,449.506 278.5,450C 276.518,454.147 274.184,457.98 271.5,461.5C 271.19,460.262 270.69,460.262 270,461.5C 268.5,464.5 267,467.5 265.5,470.5C 261.649,471.933 257.649,472.933 253.5,473.5C 255.817,476.317 258.317,478.984 261,481.5C 261.175,484.157 261.008,486.824 260.5,489.5C 259.624,489.369 258.957,489.702 258.5,490.5C 252.207,504.758 245.207,518.425 237.5,531.5C 227.027,522.031 218.027,511.364 210.5,499.5C 222.428,483.728 234.594,468.061 247,452.5C 248.302,451.915 249.469,451.249 250.5,450.5C 258.154,449.93 265.821,449.596 273.5,449.5 Z"/></g>
<g><path style="opacity:1" fill="#f31e46" d="M 355.5,449.5 C 358.833,449.5 362.167,449.5 365.5,449.5C 369.092,456.352 372.426,463.352 375.5,470.5C 375.376,471.107 375.043,471.44 374.5,471.5C 373.325,471.719 372.325,471.386 371.5,470.5C 369.921,467.006 368.087,463.673 366,460.5C 364.294,464.079 362.461,467.579 360.5,471C 356.914,472.108 353.247,472.608 349.5,472.5C 348.351,472.209 347.684,471.376 347.5,470C 345.67,463.171 344.003,456.338 342.5,449.5C 346.833,449.5 351.167,449.5 355.5,449.5 Z"/></g>
<g><path style="opacity:0.698" fill="#515151" d="M 110.5,502.5 C 109.21,501.942 108.377,500.942 108,499.5C 107.833,473.16 107.333,446.827 106.5,420.5C 98.2391,422.552 89.9057,424.219 81.5,425.5C 90.1963,422.758 99.1963,420.758 108.5,419.5C 108.333,445.835 108.5,472.169 109,498.5C 109.791,499.745 110.291,501.078 110.5,502.5 Z"/></g>
<g><path style="opacity:1" fill="#cb1a46" d="M 365.5,449.5 C 378.014,450.094 390.348,451.094 402.5,452.5C 400.473,452.338 398.473,452.505 396.5,453C 408.031,467.356 419.698,481.523 431.5,495.5C 423.68,508.326 414.346,519.993 403.5,530.5C 396.398,513.627 388.732,496.96 380.5,480.5C 380.043,479.702 379.376,479.369 378.5,479.5C 379.96,477.537 381.627,475.704 383.5,474C 380.421,473.027 377.421,472.194 374.5,471.5C 375.043,471.44 375.376,471.107 375.5,470.5C 372.426,463.352 369.092,456.352 365.5,449.5 Z"/></g>
<g><path style="opacity:1" fill="#cb1a45" d="M 250.5,450.5 C 249.469,451.249 248.302,451.915 247,452.5C 234.594,468.061 222.428,483.728 210.5,499.5C 201.514,487.038 194.181,473.538 188.5,459C 208.94,454.739 229.607,451.906 250.5,450.5 Z"/></g>
<g><path style="opacity:1" fill="#f21d46" d="M 402.5,452.5 C 418.75,453.559 434.75,456.059 450.5,460C 445.567,472.706 439.234,484.54 431.5,495.5C 419.698,481.523 408.031,467.356 396.5,453C 398.473,452.505 400.473,452.338 402.5,452.5 Z"/></g>
<g><path style="opacity:1" fill="#fef7f8" d="M 271.5,461.5 C 273.109,465.217 275.109,468.717 277.5,472C 288.398,471.638 289.732,474.471 281.5,480.5C 280.828,485.139 280.662,489.806 281,494.5C 277.419,492.626 273.919,490.626 270.5,488.5C 267.167,490.5 263.833,492.5 260.5,494.5C 259.566,492.905 259.566,491.239 260.5,489.5C 261.008,486.824 261.175,484.157 261,481.5C 258.317,478.984 255.817,476.317 253.5,473.5C 257.649,472.933 261.649,471.933 265.5,470.5C 267,467.5 268.5,464.5 270,461.5C 270.69,460.262 271.19,460.262 271.5,461.5 Z"/></g>
<g><path style="opacity:1" fill="#fff7f8" d="M 374.5,471.5 C 377.421,472.194 380.421,473.027 383.5,474C 381.627,475.704 379.96,477.537 378.5,479.5C 376.754,480.249 375.754,481.583 375.5,483.5C 376.113,486.681 376.78,489.848 377.5,493C 377.167,493.5 376.833,494 376.5,494.5C 373.322,492.161 369.822,490.494 366,489.5C 362.261,490.37 358.928,492.036 356,494.5C 356.338,489.806 356.172,485.139 355.5,480.5C 353.147,478.477 350.814,476.477 348.5,474.5C 348.833,473.833 349.167,473.167 349.5,472.5C 353.247,472.608 356.914,472.108 360.5,471C 362.461,467.579 364.294,464.079 366,460.5C 368.087,463.673 369.921,467.006 371.5,470.5C 372.325,471.386 373.325,471.719 374.5,471.5 Z"/></g>
<g><path style="opacity:1" fill="#f31e46" d="M 348.5,474.5 C 350.814,476.477 353.147,478.477 355.5,480.5C 356.172,485.139 356.338,489.806 356,494.5C 358.928,492.036 362.261,490.37 366,489.5C 369.822,490.494 373.322,492.161 376.5,494.5C 376.833,494 377.167,493.5 377.5,493C 376.78,489.848 376.113,486.681 375.5,483.5C 375.754,481.583 376.754,480.249 378.5,479.5C 379.376,479.369 380.043,479.702 380.5,480.5C 388.732,496.96 396.398,513.627 403.5,530.5C 392.897,541.103 380.897,549.77 367.5,556.5C 360.748,529.358 354.415,502.025 348.5,474.5 Z"/></g>
<g><path style="opacity:0.159" fill="#373737" d="M 146.5,487.5 C 145.533,486.194 144.199,485.527 142.5,485.5C 145.051,482.77 146.384,483.437 146.5,487.5 Z"/></g>
<g><path style="opacity:0.592" fill="#3f3f3f" d="M 496.5,486.5 C 494.801,486.527 493.467,487.194 492.5,488.5C 492.5,487.5 492.5,486.5 492.5,485.5C 494.099,485.232 495.432,485.566 496.5,486.5 Z"/></g>
<g><path style="opacity:0.071" fill="#2b2b2b" d="M 140.5,486.5 C 140.027,487.906 139.027,488.573 137.5,488.5C 137.973,487.094 138.973,486.427 140.5,486.5 Z"/></g>
<g><path style="opacity:1" fill="#fefcfc" d="M 320.5,489.5 C 323.359,495.385 326.359,501.218 329.5,507C 336.943,507.777 344.277,509.111 351.5,511C 345.985,516.348 340.652,521.848 335.5,527.5C 337.519,535.084 338.686,542.751 339,550.5C 333.257,547.24 327.423,544.24 321.5,541.5C 320.739,540.609 319.739,539.942 318.5,539.5C 311.428,542.785 304.595,546.452 298,550.5C 298.648,542.802 299.814,535.136 301.5,527.5C 297.146,522.479 292.479,517.812 287.5,513.5C 287.047,512.542 286.381,511.708 285.5,511C 286.737,510.768 287.737,510.268 288.5,509.5C 294.843,508.808 301.176,507.975 307.5,507C 310.961,500.578 314.294,494.078 317.5,487.5C 319.083,486.688 320.083,487.355 320.5,489.5 Z"/></g>
<g><path style="opacity:0.627" fill="#545454" d="M 496.5,486.5 C 498.027,486.427 499.027,487.094 499.5,488.5C 497.973,488.573 496.973,487.906 496.5,486.5 Z"/></g>
<g><path style="opacity:0.918" fill="#5c5c5c" d="M 499.5,488.5 C 501.371,488.859 502.871,489.859 504,491.5C 505.323,495.127 506.489,498.793 507.5,502.5C 506.21,501.942 505.377,500.942 505,499.5C 504.582,495.05 502.748,491.384 499.5,488.5 Z"/></g>
<g><path style="opacity:0.192" fill="#323232" d="M 135.5,490.5 C 135.167,491.5 134.5,492.167 133.5,492.5C 133.5,491.167 134.167,490.5 135.5,490.5 Z"/></g>
<g><path style="opacity:0.733" fill="#4a4a4a" d="M 133.5,492.5 C 133.365,496.43 132.032,499.764 129.5,502.5C 130.428,499.546 131.261,496.546 132,493.5C 132.383,492.944 132.883,492.611 133.5,492.5 Z"/></g>
<g><path style="opacity:0.475" fill="#393939" d="M 146.5,487.5 C 150.341,493.849 153.675,500.516 156.5,507.5C 152.126,501.419 148.793,494.752 146.5,487.5 Z"/></g>
<g><path style="opacity:0.365" fill="#535353" d="M 110.5,502.5 C 112.777,503.449 114.777,504.782 116.5,506.5C 113.708,506.378 111.708,505.044 110.5,502.5 Z"/></g>
<g><path style="opacity:0.282" fill="#2b2b2b" d="M 491.5,490.5 C 489.874,496.419 487.207,501.753 483.5,506.5C 485.659,500.849 488.326,495.516 491.5,490.5 Z"/></g>
<g><path style="opacity:0.416" fill="#303030" d="M 509.5,504.5 C 512.966,506.092 516.633,506.758 520.5,506.5C 518.034,507.634 515.367,507.801 512.5,507C 511.058,506.623 510.058,505.79 509.5,504.5 Z"/></g>
<g><path style="opacity:0.341" fill="#2f2f2f" d="M 524.5,504.5 C 523.713,506.104 522.38,506.771 520.5,506.5C 521.514,505.326 522.847,504.66 524.5,504.5 Z"/></g>
<g><path style="opacity:0.486" fill="#2c2c2c" d="M 127.5,504.5 C 126.942,505.79 125.942,506.623 124.5,507C 121.633,507.801 118.966,507.634 116.5,506.5C 120.367,506.758 124.034,506.092 127.5,504.5 Z"/></g>
<g><path style="opacity:0.427" fill="#383838" d="M 482.5,508.5 C 482.25,510.674 481.25,512.341 479.5,513.5C 479.75,511.326 480.75,509.659 482.5,508.5 Z"/></g>
<g><path style="opacity:0.388" fill="#323232" d="M 157.5,509.5 C 159.25,510.659 160.25,512.326 160.5,514.5C 158.75,513.341 157.75,511.674 157.5,509.5 Z"/></g>
<g><path style="opacity:1" fill="#f32047" d="M 287.5,513.5 C 292.479,517.812 297.146,522.479 301.5,527.5C 299.814,535.136 298.648,542.802 298,550.5C 304.595,546.452 311.428,542.785 318.5,539.5C 319.739,539.942 320.739,540.609 321.5,541.5C 321.5,553.5 321.5,565.5 321.5,577.5C 306.097,571.961 291.097,565.627 276.5,558.5C 279.296,543.16 282.963,528.16 287.5,513.5 Z"/></g>
<g><path style="opacity:0.424" fill="#373737" d="M 160.5,514.5 C 162.25,515.659 163.25,517.326 163.5,519.5C 161.75,518.341 160.75,516.674 160.5,514.5 Z"/></g>
<g><path style="opacity:0.337" fill="#393939" d="M 478.5,515.5 C 478.573,517.027 477.906,518.027 476.5,518.5C 476.427,516.973 477.094,515.973 478.5,515.5 Z"/></g>
<g><path style="opacity:0.443" fill="#3e3e3e" d="M 476.5,518.5 C 476.25,520.674 475.25,522.341 473.5,523.5C 473.75,521.326 474.75,519.659 476.5,518.5 Z"/></g>
<g><path style="opacity:0.318" fill="#3b3b3b" d="M 163.5,519.5 C 164.906,519.973 165.573,520.973 165.5,522.5C 164.094,522.027 163.427,521.027 163.5,519.5 Z"/></g>
<g><path style="opacity:0.424" fill="#535353" d="M 165.5,522.5 C 166.906,522.973 167.573,523.973 167.5,525.5C 166.094,525.027 165.427,524.027 165.5,522.5 Z"/></g>
<g><path style="opacity:0.294" fill="#3e3e3e" d="M 473.5,523.5 C 473.573,525.027 472.906,526.027 471.5,526.5C 471.427,524.973 472.094,523.973 473.5,523.5 Z"/></g>
<g><path style="opacity:0.349" fill="#4a4a4a" d="M 167.5,525.5 C 168.906,525.973 169.573,526.973 169.5,528.5C 168.094,528.027 167.427,527.027 167.5,525.5 Z"/></g>
<g><path style="opacity:0.235" fill="#353535" d="M 471.5,526.5 C 471.573,528.027 470.906,529.027 469.5,529.5C 469.427,527.973 470.094,526.973 471.5,526.5 Z"/></g>
<g><path style="opacity:0.259" fill="#3a3a3a" d="M 169.5,528.5 C 170.906,528.973 171.573,529.973 171.5,531.5C 170.094,531.027 169.427,530.027 169.5,528.5 Z"/></g>
<g><path style="opacity:0.012" fill="#242424" d="M 171.5,531.5 C 172.906,531.973 173.573,532.973 173.5,534.5C 172.094,534.027 171.427,533.027 171.5,531.5 Z"/></g>
<g><path style="opacity:0.259" fill="#393939" d="M 466.5,533.5 C 466.573,535.027 465.906,536.027 464.5,536.5C 464.427,534.973 465.094,533.973 466.5,533.5 Z"/></g>
<g><path style="opacity:0.757" fill="#4a4a4a" d="M 173.5,534.5 C 175.446,535.035 176.446,536.368 176.5,538.5C 175.026,537.564 174.026,536.23 173.5,534.5 Z"/></g>
<g><path style="opacity:0.071" fill="#2a2a2a" d="M 463.5,537.5 C 463.573,539.027 462.906,540.027 461.5,540.5C 461.427,538.973 462.094,537.973 463.5,537.5 Z"/></g>
<g><path style="opacity:0.255" fill="#363636" d="M 178.5,540.5 C 179.906,540.973 180.573,541.973 180.5,543.5C 179.094,543.027 178.427,542.027 178.5,540.5 Z"/></g>
<g><path style="opacity:0.043" fill="#242424" d="M 460.5,541.5 C 460.573,543.027 459.906,544.027 458.5,544.5C 458.427,542.973 459.094,541.973 460.5,541.5 Z"/></g>
<g><path style="opacity:0.051" fill="#323232" d="M 182.5,545.5 C 184.262,546.262 185.262,547.596 185.5,549.5C 183.738,548.738 182.738,547.404 182.5,545.5 Z"/></g>
<g><path style="opacity:0.039" fill="#323232" d="M 455.5,547.5 C 455.262,549.404 454.262,550.738 452.5,551.5C 452.738,549.596 453.738,548.262 455.5,547.5 Z"/></g>
<g><path style="opacity:0.016" fill="#3d3d3d" d="M 188.5,552.5 C 190.914,553.911 192.581,555.911 193.5,558.5C 191.086,557.089 189.419,555.089 188.5,552.5 Z"/></g>
<g><path style="opacity:0.894" fill="#656565" d="M 193.5,558.5 C 198.774,562.105 203.441,566.438 207.5,571.5C 202.226,567.895 197.559,563.562 193.5,558.5 Z"/></g>
<g><path style="opacity:0.059" fill="#262626" d="M 447.5,556.5 C 444.167,561.833 439.833,566.167 434.5,569.5C 438.5,564.833 442.833,560.5 447.5,556.5 Z"/></g>
<g><path style="opacity:0.937" fill="#6e6e6e" d="M 209.5,573.5 C 211.749,574.08 213.415,575.413 214.5,577.5C 212.251,576.92 210.585,575.587 209.5,573.5 Z"/></g>
<g><path style="opacity:0.008" fill="#181818" d="M 428.5,575.5 C 428.027,576.906 427.027,577.573 425.5,577.5C 425.973,576.094 426.973,575.427 428.5,575.5 Z"/></g>
<g><path style="opacity:0.976" fill="#7a7a7a" d="M 214.5,577.5 C 216.749,578.08 218.415,579.413 219.5,581.5C 217.251,580.92 215.585,579.587 214.5,577.5 Z"/></g>
<g><path style="opacity:0.039" fill="#1d1d1d" d="M 423.5,579.5 C 423.027,580.906 422.027,581.573 420.5,581.5C 420.973,580.094 421.973,579.427 423.5,579.5 Z"/></g>
<g><path style="opacity:0.804" fill="#5c5c5c" d="M 219.5,581.5 C 221.749,582.08 223.415,583.413 224.5,585.5C 222.251,584.92 220.585,583.587 219.5,581.5 Z"/></g>
<g><path style="opacity:0.102" fill="#282828" d="M 419.5,582.5 C 419.027,583.906 418.027,584.573 416.5,584.5C 416.973,583.094 417.973,582.427 419.5,582.5 Z"/></g>
<g><path style="opacity:0.741" fill="#545454" d="M 224.5,585.5 C 226.027,585.427 227.027,586.094 227.5,587.5C 225.973,587.573 224.973,586.906 224.5,585.5 Z"/></g>
<g><path style="opacity:0.067" fill="#242424" d="M 415.5,585.5 C 415.027,586.906 414.027,587.573 412.5,587.5C 412.973,586.094 413.973,585.427 415.5,585.5 Z"/></g>
<g><path style="opacity:0.796" fill="#626262" d="M 227.5,587.5 C 229.404,587.738 230.738,588.738 231.5,590.5C 229.596,590.262 228.262,589.262 227.5,587.5 Z"/></g>
<g><path style="opacity:0.004" fill="#1b1b1b" d="M 411.5,588.5 C 411.027,589.906 410.027,590.573 408.5,590.5C 408.973,589.094 409.973,588.427 411.5,588.5 Z"/></g>
<g><path style="opacity:0.498" fill="#3f3f3f" d="M 231.5,590.5 C 233.027,590.427 234.027,591.094 234.5,592.5C 232.973,592.573 231.973,591.906 231.5,590.5 Z"/></g>
<g><path style="opacity:0.694" fill="#565656" d="M 236.5,593.5 C 238.027,593.427 239.027,594.094 239.5,595.5C 237.973,595.573 236.973,594.906 236.5,593.5 Z"/></g>
<g><path style="opacity:0.475" fill="#404040" d="M 239.5,595.5 C 241.027,595.427 242.027,596.094 242.5,597.5C 240.973,597.573 239.973,596.906 239.5,595.5 Z"/></g>
<g><path style="opacity:0.42" fill="#3a3a3a" d="M 400.5,595.5 C 399.341,597.25 397.674,598.25 395.5,598.5C 396.659,596.75 398.326,595.75 400.5,595.5 Z"/></g>
<g><path style="opacity:0.459" fill="#424242" d="M 246.5,599.5 C 248.027,599.427 249.027,600.094 249.5,601.5C 247.973,601.573 246.973,600.906 246.5,599.5 Z"/></g>
<g><path style="opacity:0.435" fill="#3a3a3a" d="M 393.5,599.5 C 390.992,601.924 387.992,603.59 384.5,604.5C 387.008,602.076 390.008,600.41 393.5,599.5 Z"/></g>
<g><path style="opacity:1" fill="#737373" d="M 249.5,601.5 C 251.483,601.157 252.817,601.824 253.5,603.5C 251.847,603.34 250.514,602.674 249.5,601.5 Z"/></g>
<g><path style="opacity:1" fill="#787878" d="M 253.5,603.5 C 255.483,603.157 256.817,603.824 257.5,605.5C 255.847,605.34 254.514,604.674 253.5,603.5 Z"/></g>
<g><path style="opacity:0.573" fill="#373737" d="M 384.5,604.5 C 381.249,606.957 377.582,608.624 373.5,609.5C 376.751,607.043 380.418,605.376 384.5,604.5 Z"/></g>
<g><path style="opacity:0.298" fill="#404040" d="M 257.5,605.5 C 260.481,605.182 262.815,606.182 264.5,608.5C 261.759,608.293 259.426,607.293 257.5,605.5 Z"/></g>
<g><path style="opacity:1" fill="#757575" d="M 264.5,608.5 C 266.483,608.157 267.817,608.824 268.5,610.5C 266.847,610.34 265.514,609.674 264.5,608.5 Z"/></g>
<g><path style="opacity:0.42" fill="#2d2d2d" d="M 373.5,609.5 C 371.574,611.293 369.241,612.293 366.5,612.5C 368.426,610.707 370.759,609.707 373.5,609.5 Z"/></g>
<g><path style="opacity:0.396" fill="#262626" d="M 268.5,610.5 C 271.346,610.552 273.68,611.552 275.5,613.5C 272.843,613.065 270.509,612.065 268.5,610.5 Z"/></g>
<g><path style="opacity:0.384" fill="#272727" d="M 366.5,612.5 C 364.574,614.293 362.241,615.293 359.5,615.5C 361.426,613.707 363.759,612.707 366.5,612.5 Z"/></g>
<g><path style="opacity:0.98" fill="#646464" d="M 278.5,614.5 C 280.698,614.12 282.365,614.787 283.5,616.5C 281.447,616.598 279.78,615.931 278.5,614.5 Z"/></g>
<g><path style="opacity:1" fill="#696969" d="M 283.5,616.5 C 286.491,616.166 288.824,617.166 290.5,619.5C 287.759,619.293 285.426,618.293 283.5,616.5 Z"/></g>
<g><path style="opacity:0.392" fill="#292929" d="M 359.5,615.5 C 357.574,617.293 355.241,618.293 352.5,618.5C 354.426,616.707 356.759,615.707 359.5,615.5 Z"/></g>
<g><path style="opacity:0.549" fill="#303030" d="M 352.5,618.5 C 350.574,620.293 348.241,621.293 345.5,621.5C 347.426,619.707 349.759,618.707 352.5,618.5 Z"/></g>
<g><path style="opacity:0.302" fill="#2b2b2b" d="M 290.5,619.5 C 292.553,619.402 294.22,620.069 295.5,621.5C 293.447,621.598 291.78,620.931 290.5,619.5 Z"/></g>
<g><path style="opacity:0.349" fill="#232323" d="M 345.5,621.5 C 343.574,623.293 341.241,624.293 338.5,624.5C 340.426,622.707 342.759,621.707 345.5,621.5 Z"/></g>
<g><path style="opacity:0.467" fill="#333333" d="M 297.5,622.5 C 300.346,622.552 302.68,623.552 304.5,625.5C 301.843,625.065 299.509,624.065 297.5,622.5 Z"/></g>
<g><path style="opacity:0.349" fill="#252525" d="M 338.5,624.5 C 334.414,626.87 330.081,628.87 325.5,630.5C 325.5,630.167 325.5,629.833 325.5,629.5C 329.605,627.243 333.939,625.576 338.5,624.5 Z"/></g>
<g><path style="opacity:0.278" fill="#1d1d1d" d="M 307.5,626.5 C 309.553,626.402 311.22,627.069 312.5,628.5C 310.447,628.598 308.78,627.931 307.5,626.5 Z"/></g>
<g><path style="opacity:0.835" fill="#5d5d5d" d="M 312.5,628.5 C 316.798,629.2 321.131,629.533 325.5,629.5C 325.5,629.833 325.5,630.167 325.5,630.5C 320.777,632.064 316.444,631.397 312.5,628.5 Z"/></g>
</svg>
