<?xml version="1.0" standalone="no"?>
<!DOCTYPE svg PUBLIC "-//W3C//DTD SVG 20010904//EN"
 "http://www.w3.org/TR/2001/REC-SVG-20010904/DTD/svg10.dtd">
<svg version="1.0" xmlns="http://www.w3.org/2000/svg"
 width="564.000000pt" height="540.000000pt" viewBox="0 0 564.000000 540.000000"
 preserveAspectRatio="xMidYMid meet">

<g transform="translate(0.000000,540.000000) scale(0.100000,-0.100000)"
fill="#dedede" stroke="none">

<path d="M344 5071 c3 -5 36 -27 74 -49 46 -28 76 -39 90 -35 12 3 40 -2 62
-11 22 -9 48 -16 58 -16 28 1 -75 49 -119 56 -22 4 -42 11 -45 15 -3 5 -10 7
-15 3 -5 -3 -30 6 -55 20 -50 28 -58 31 -50 17z"/>
<path d="M2680 5025 c0 -8 5 -15 10 -15 6 0 10 7 10 15 0 8 -4 15 -10 15 -5 0
-10 -7 -10 -15z"/>
<path d="M2819 4976 c18 -21 3 -48 -23 -40 -19 6 -19 5 -7 -10 13 -15 12 -17
-12 -12 -18 3 -24 1 -21 -8 4 -10 -2 -12 -22 -8 -17 3 -25 1 -21 -6 9 -14 -13
-21 -49 -15 -26 4 -27 3 -11 -10 20 -17 22 -28 5 -23 -7 3 -33 7 -58 10 -45 5
-45 5 -15 -9 17 -8 26 -14 21 -15 -5 0 -3 -7 4 -15 11 -13 8 -15 -14 -15 -25
0 -26 -2 -14 -22 7 -13 11 -29 10 -35 -2 -7 2 -13 8 -13 5 0 10 -4 10 -10 0
-5 -8 -6 -17 -3 -16 6 -16 5 -4 -10 11 -14 11 -17 0 -18 -27 -3 -47 -2 -75 4
-22 5 -19 2 12 -12 23 -11 44 -26 47 -35 6 -15 1 -16 -36 -12 -23 3 -36 3 -29
0 6 -3 9 -10 6 -15 -3 -6 1 -18 9 -27 29 -33 48 -80 34 -85 -7 -3 -5 -8 8 -13
10 -4 29 -19 42 -33 23 -27 31 -47 13 -36 -5 3 -10 2 -10 -3 0 -6 7 -12 15
-16 50 -19 -21 -97 -86 -94 -21 1 -39 5 -39 10 0 4 -3 7 -7 7 -21 -3 -33 3
-33 17 0 8 -4 12 -10 9 -5 -3 -22 4 -38 15 -27 20 -102 31 -207 32 -33 0 -85
17 -85 27 0 3 -15 13 -32 20 -18 8 -59 30 -91 49 -32 19 -61 32 -63 29 -3 -3
17 -18 45 -34 28 -15 51 -33 51 -39 0 -13 -43 -10 -84 6 -15 5 -41 10 -57 10
-16 0 -29 4 -29 9 0 5 -12 9 -27 8 -74 -3 -114 4 -132 22 -23 23 -31 11 -31
-45 0 -26 -4 -34 -17 -34 -27 0 -80 36 -87 58 -4 11 -14 23 -23 26 -13 5 -14
4 -3 -9 18 -22 1 -19 -76 14 -167 72 -333 126 -362 117 -22 -6 -107 68 -96 85
4 7 3 9 -3 6 -6 -4 -21 5 -34 19 -13 14 -33 31 -44 36 -14 7 -11 1 10 -21 l30
-33 -26 7 c-15 4 -29 2 -33 -3 -5 -8 35 -23 70 -26 6 -1 25 -15 41 -31 48 -49
92 -83 99 -76 4 3 4 1 0 -6 -7 -13 62 -66 75 -57 14 8 50 -16 43 -28 -4 -6 -3
-8 4 -4 14 9 84 -33 75 -47 -3 -6 -1 -7 5 -3 7 4 22 0 34 -8 29 -21 9 -20 -44
1 -63 25 -246 150 -253 173 -4 11 -11 20 -16 20 -6 0 -7 -4 -4 -10 3 -5 3 -10
-2 -10 -12 1 -43 26 -43 35 0 4 7 2 15 -5 10 -9 15 -9 15 -1 0 10 -14 15 -34
12 -5 -1 -21 9 -35 23 -14 13 -39 26 -56 28 -16 2 -28 8 -25 13 3 6 10 9 15 7
6 -1 -1 6 -14 17 -14 10 -31 17 -38 14 -7 -3 -13 -1 -13 5 0 5 -12 7 -27 4
-21 -4 -25 -2 -20 12 4 9 2 16 -3 16 -6 0 -10 -5 -10 -11 0 -5 -5 -7 -10 -4
-6 4 -7 11 -4 17 4 6 2 8 -3 5 -6 -4 -19 3 -29 14 -20 22 -120 77 -110 60 10
-16 -10 -22 -40 -11 -34 13 -77 -10 -67 -38 14 -41 93 -104 93 -73 0 4 25 0
57 -10 31 -11 77 -19 103 -19 37 0 53 -5 72 -25 13 -13 37 -29 51 -34 15 -6
60 -32 100 -59 39 -27 101 -66 137 -87 36 -22 99 -65 142 -96 42 -31 98 -67
125 -79 26 -13 70 -39 97 -57 27 -18 59 -36 72 -39 13 -3 24 -10 24 -16 0 -5
9 -7 20 -3 30 10 60 -12 60 -44 0 -59 18 -85 92 -131 39 -25 105 -78 145 -117
40 -40 79 -73 85 -73 6 0 9 -3 6 -6 -4 -3 -20 2 -37 10 -46 24 -48 19 -5 -13
21 -16 52 -43 69 -60 24 -26 27 -34 15 -41 -12 -8 -12 -12 0 -35 13 -24 13
-28 -3 -39 -9 -7 -15 -15 -13 -17 2 -2 -14 -5 -36 -6 -23 0 -44 -6 -48 -12 -3
-7 -14 -9 -23 -5 -20 7 -21 1 -7 -27 11 -20 11 -20 -40 -24 -8 0 -21 -4 -28
-9 -7 -4 -30 -5 -50 -2 -30 5 -32 4 -14 -4 13 -5 37 -21 55 -34 81 -61 142
-89 207 -96 l65 -7 -44 -8 c-40 -7 -42 -9 -26 -22 25 -18 11 -16 -59 7 -67 23
-80 24 -71 10 9 -15 -2 -12 -31 7 -24 16 -26 16 -22 -3 2 -15 -2 -18 -20 -17
-13 2 -21 -1 -17 -7 17 -28 -23 -4 -67 39 -42 41 -56 49 -77 45 -19 -4 -34 1
-51 16 l-25 21 24 -7 c16 -4 21 -3 17 5 -4 6 -13 11 -21 11 -25 0 -26 -18 -1
-42 53 -51 74 -68 81 -68 3 0 21 -16 39 -35 35 -36 35 -45 2 -20 -37 28 -126
12 -126 -23 0 -28 72 -94 172 -160 48 -31 88 -60 88 -64 0 -19 -87 -6 -152 22
-38 17 -80 30 -92 30 -26 -1 129 -82 164 -85 14 -2 50 -10 80 -18 30 -8 80
-21 110 -27 94 -21 112 -42 135 -153 7 -36 46 -73 84 -80 29 -6 135 -96 114
-97 -7 0 -13 -5 -13 -11 0 -7 11 -8 30 -4 36 8 39 -6 13 -60 l-17 -35 -28 27
c-37 35 -36 21 2 -27 31 -40 43 -83 16 -61 -23 20 -26 -3 -5 -35 20 -28 20
-28 14 -4 -5 20 2 16 40 -25 25 -27 58 -66 73 -85 43 -54 161 -164 191 -177
15 -6 33 -19 40 -27 8 -9 22 -16 32 -16 11 0 19 -5 19 -11 0 -5 4 -8 8 -5 10
6 196 -86 200 -99 1 -6 8 -10 15 -10 6 0 38 -18 71 -40 32 -22 68 -47 80 -55
23 -15 108 -100 101 -100 -17 0 -105 66 -101 76 3 8 0 11 -9 7 -8 -3 -18 2
-21 11 -3 9 -11 13 -17 9 -6 -4 -7 -1 -2 7 5 8 3 11 -6 8 -16 -6 -69 22 -69
36 0 5 8 2 18 -7 10 -10 22 -17 26 -17 5 0 -2 8 -15 19 -13 10 -29 17 -35 14
-7 -2 -28 0 -48 6 -49 13 -40 -2 64 -107 41 -42 46 -49 19 -29 -55 39 -110 69
-154 82 -26 8 -41 19 -43 31 -2 10 -9 24 -14 29 -8 7 -9 4 -5 -8 8 -21 -5 -16
-40 16 -13 11 -26 17 -30 13 -4 -4 3 -17 17 -28 l25 -20 -27 16 c-36 21 -39
20 -32 -8 9 -37 -24 -96 -61 -112 -41 -17 -163 -13 -174 5 -7 11 -10 10 -17
-2 -6 -11 -27 -17 -64 -19 -41 -2 -55 -7 -55 -18 0 -21 28 -28 110 -29 39 -1
97 -8 128 -16 32 -8 72 -15 90 -15 34 0 145 -27 242 -58 49 -16 70 -30 112
-76 28 -32 56 -70 62 -87 6 -16 16 -43 22 -59 6 -16 17 -30 24 -30 13 0 28
-35 26 -57 -1 -7 8 -31 19 -53 11 -22 17 -40 13 -40 -5 0 -3 -4 3 -8 13 -9
115 -147 143 -192 11 -19 56 -65 98 -101 47 -39 78 -73 78 -85 1 -20 164 -192
201 -212 12 -6 32 -33 45 -60 13 -27 28 -49 34 -47 5 1 7 0 3 -2 -14 -8 -8
-30 13 -49 16 -14 20 -27 16 -50 -3 -17 -1 -36 4 -41 6 -6 6 -26 -2 -54 -6
-24 -13 -63 -14 -87 -1 -23 -5 -46 -9 -49 -3 -3 -90 -5 -193 -4 -103 1 -184
-1 -180 -5 14 -15 634 -36 687 -24 19 5 73 12 120 15 178 14 191 16 125 24
l-50 6 -1 39 c-1 30 -7 45 -28 61 -14 11 -26 26 -26 32 0 6 -13 24 -28 41 -16
17 -36 41 -44 54 -13 18 -19 21 -29 11 -25 -24 -61 -14 -108 30 -25 24 -47 47
-48 51 -1 4 -13 16 -27 27 l-25 19 6 -47 c4 -42 3 -46 -11 -34 -13 11 -19 11
-31 1 -12 -10 -15 -10 -15 4 0 10 9 16 23 17 20 1 20 2 2 6 -26 7 -55 33 -55
50 0 8 -7 13 -16 11 -31 -5 -26 21 6 37 18 9 29 19 26 22 -3 3 -21 -5 -40 -17
-20 -12 -36 -17 -36 -11 0 6 -13 32 -30 57 -28 45 -29 49 -13 66 16 18 18 17
55 -24 l39 -43 -21 42 c-11 23 -20 47 -20 53 0 5 22 10 50 10 61 0 63 11 16
77 -40 57 -62 98 -48 89 6 -3 1 18 -11 48 -12 30 -25 52 -29 50 -4 -3 -17 14
-28 36 -11 23 -35 58 -53 78 -18 20 -45 57 -61 82 -16 25 -36 54 -46 65 -10
11 -26 34 -36 50 -14 23 -15 28 -3 20 11 -7 10 -6 -2 5 -9 9 -21 25 -27 37
-13 24 -31 23 -147 -14 -85 -27 -124 -50 -165 -94 l-26 -28 -13 22 c-13 20
-10 25 40 70 78 70 212 134 228 108 5 -8 28 -8 77 -2 75 9 153 51 175 94 11
21 11 21 -7 5 -29 -25 -105 -55 -144 -56 -32 -1 -110 33 -109 48 0 3 -3 13 -7
23 -4 11 -1 23 6 30 10 9 11 9 5 -2 -5 -9 -3 -12 6 -9 8 3 14 11 14 19 0 8 4
20 9 28 7 10 6 12 -4 6 -10 -6 -11 -3 -6 16 4 13 10 50 13 82 5 52 7 57 22 44
9 -8 23 -18 31 -22 13 -8 13 -7 0 11 -8 10 -22 28 -32 40 -11 12 -21 45 -25
75 l-6 54 28 -25 c15 -14 38 -44 52 -68 14 -24 27 -41 30 -38 8 8 -29 70 -74
123 -24 29 -42 57 -38 63 9 15 35 -2 89 -56 59 -59 59 -44 1 20 -25 27 -45 53
-45 58 0 4 18 8 40 8 37 0 43 -4 70 -47 16 -25 36 -71 45 -102 21 -77 36 -107
29 -61 -3 19 -10 49 -15 66 -18 58 -18 75 -2 109 24 51 11 94 -58 179 -34 43
-65 94 -73 121 -8 25 -28 67 -45 93 -38 59 -73 159 -65 184 3 12 0 18 -10 18
-14 0 -17 7 -16 35 0 3 -18 30 -40 60 -22 30 -40 58 -40 62 0 5 9 16 20 25 32
28 34 62 7 120 -13 29 -30 70 -36 90 -7 21 -17 41 -23 44 -18 12 -48 88 -48
126 0 36 32 112 52 124 5 4 15 1 21 -5 8 -8 8 -11 -1 -11 -7 0 -12 -5 -12 -11
0 -8 5 -8 15 1 23 19 38 0 70 -92 16 -45 30 -77 32 -71 2 6 -5 35 -15 64 -37
101 -36 96 -9 68 13 -15 34 -32 46 -38 20 -11 21 -18 17 -94 -4 -54 -2 -72 3
-52 5 17 9 46 10 66 1 44 9 53 28 34 19 -19 57 -19 73 0 19 22 47 18 104 -14
28 -17 73 -35 99 -41 26 -5 66 -21 87 -35 82 -52 201 -87 405 -121 55 -9 115
-22 134 -30 18 -8 46 -14 61 -14 27 0 131 62 162 96 63 72 109 114 118 109 6
-4 15 -18 20 -31 12 -32 44 -33 35 -1 -17 55 -75 58 -126 5 -16 -17 -29 -35
-29 -39 0 -5 -6 -6 -14 -3 -8 3 -24 -4 -35 -15 -12 -12 -27 -20 -34 -19 -6 2
-11 -2 -10 -9 6 -27 -89 -75 -122 -62 -11 4 -14 8 -7 8 6 1 12 5 12 9 0 5 -13
7 -29 4 -15 -2 -42 3 -59 12 -18 9 -101 27 -186 40 -133 20 -166 29 -231 62
-77 38 -103 59 -91 71 3 4 13 -2 21 -13 13 -16 14 -16 9 -1 -4 11 -1 17 9 17
22 0 32 -20 16 -31 -9 -6 -4 -7 15 -3 21 5 27 4 22 -5 -4 -7 -2 -10 5 -9 6 2
14 -3 17 -11 3 -9 0 -11 -8 -6 -9 5 -11 4 -6 -3 10 -16 36 -15 36 1 0 6 -13
21 -29 32 -17 11 -28 21 -27 23 7 6 56 -10 51 -17 -2 -4 9 -8 25 -8 33 0 67
-22 50 -33 -6 -4 3 -7 19 -7 24 0 28 3 20 13 -9 11 -4 11 23 4 18 -6 35 -10
38 -10 3 0 -2 -5 -10 -10 -11 -8 -8 -9 12 -4 19 4 47 -4 99 -30 79 -39 83 -41
74 -27 -10 17 -137 78 -200 96 -33 10 -99 31 -146 47 -48 15 -95 28 -106 28
-10 0 -29 10 -42 21 -19 18 -26 19 -44 10 -13 -7 -14 -9 -4 -7 9 3 17 1 17 -4
0 -5 8 -11 18 -14 9 -3 -3 -2 -28 1 -25 3 -52 11 -61 19 -17 16 -43 19 -35 5
4 -5 0 -12 -6 -15 -7 -3 -4 -4 6 -3 10 1 21 -4 23 -10 10 -27 -18 -11 -74 43
-32 32 -41 43 -20 25 21 -17 40 -31 43 -31 11 0 -83 102 -106 115 -18 10 -20
14 -8 15 10 0 15 6 11 18 -5 22 58 118 76 114 7 -1 10 1 7 6 -3 5 7 15 22 24
33 19 63 10 89 -27 10 -15 28 -38 41 -53 l23 -27 -21 35 c-11 19 -20 46 -20
60 -1 32 -21 58 -40 52 -8 -3 -12 -1 -8 3 7 7 -34 71 -156 240 -73 101 -140
156 -255 210 -85 40 -92 42 -60 15 33 -27 12 -25 -35 4 -37 22 -38 23 -15 30
23 7 23 8 -11 23 -59 25 -80 51 -82 102 -1 41 -2 42 -5 11 l-5 -35 -15 25 c-8
14 -12 18 -9 9 4 -13 -7 -11 -52 12 -31 15 -73 31 -94 34 -21 4 -35 11 -32 16
3 6 14 7 24 4 12 -4 20 1 24 17 7 22 7 22 16 3 7 -17 9 -16 9 9 1 28 2 28 19
13 24 -22 31 -21 25 3 -6 24 15 53 34 46 8 -3 11 -1 8 4 -3 6 -1 10 4 10 6 0
11 -10 11 -23 0 -13 11 -38 24 -56 23 -31 25 -31 31 -11 5 15 0 26 -16 38 -23
20 -37 98 -25 147 8 32 49 50 78 34 18 -10 20 -18 15 -66 -5 -50 -4 -55 19
-65 18 -9 27 -9 36 0 7 7 29 12 49 12 56 0 82 27 82 82 -1 25 -9 60 -18 78 -9
18 -14 42 -11 56 5 18 -3 32 -38 65 -25 24 -42 47 -39 53 3 5 1 6 -5 2 -7 -4
-16 3 -22 18 -11 29 -81 83 -119 93 -14 3 -35 12 -46 19 -12 8 -55 15 -97 17
-42 3 -90 12 -108 20 -23 12 -29 13 -21 3z m-2194 -136 c3 -5 17 -10 31 -10
13 0 24 -4 24 -9 0 -21 -21 -21 -49 0 -20 15 -39 20 -60 17 -16 -2 -28 -1 -25
4 7 11 72 10 79 -2z m89 -49 c4 -5 -3 -7 -14 -4 -23 6 -26 13 -6 13 8 0 17 -4
20 -9z m496 -192 c101 -34 163 -65 105 -54 -28 5 -28 5 -6 -5 13 -6 33 -8 44
-4 12 4 17 2 13 -4 -3 -5 5 -17 19 -26 30 -20 39 -20 31 -1 -8 21 6 19 32 -6
12 -11 27 -17 32 -14 14 9 25 -24 11 -36 -6 -5 -9 -6 -6 -3 5 7 -38 44 -51 44
-4 0 5 -13 21 -30 16 -16 37 -30 47 -30 20 0 27 -12 32 -51 5 -37 17 -59 32
-59 19 0 5 30 -15 31 -10 0 -11 2 -3 6 6 2 10 9 6 14 -3 5 -3 9 0 9 6 0 36
-55 36 -65 0 -3 -10 -5 -23 -5 -15 0 -29 11 -41 31 -16 27 -20 29 -28 15 -8
-13 -15 -10 -48 26 -22 23 -40 45 -40 50 0 5 -12 13 -26 18 -42 16 -85 51 -78
62 5 7 2 8 -5 4 -7 -5 -29 3 -51 18 -22 14 -42 26 -45 26 -3 0 -28 16 -56 35
-28 19 -47 35 -43 35 5 0 52 -14 104 -31z m1330 11 c0 -5 -2 -10 -4 -10 -3 0
-8 5 -11 10 -3 6 -1 10 4 10 6 0 11 -4 11 -10z m-926 -194 c42 -22 42 -23 31
-56 -9 -26 -13 -30 -18 -17 -4 10 -2 17 6 17 7 0 1 6 -13 13 -14 7 -24 21 -24
30 1 10 -5 17 -16 17 -10 0 -20 5 -22 11 -2 5 -12 12 -23 14 -11 2 -21 4 -23
4 -2 1 0 6 3 12 5 7 15 5 31 -6 14 -9 44 -26 68 -39z m-9 -66 c10 -11 14 -20
9 -20 -5 0 -15 9 -22 20 -7 11 -11 20 -9 20 2 0 12 -9 22 -20z m821 -32 c13
-13 14 -18 4 -18 -21 0 -50 31 -50 54 1 21 1 21 15 1 8 -11 22 -28 31 -37z
m-910 7 c3 -17 -12 -20 -21 -5 -7 12 4 34 13 25 3 -3 7 -12 8 -20z m851 -111
c-3 -3 -12 -4 -19 -1 -8 3 -5 6 6 6 11 1 17 -2 13 -5z m-290 -42 c54 -16 141
-41 193 -56 l95 -26 17 22 c12 16 13 25 5 30 -18 11 29 55 64 60 21 3 29 0 29
-10 0 -11 8 -13 30 -9 16 4 32 2 35 -3 3 -5 18 -7 34 -5 16 2 42 -4 57 -12 49
-26 93 -33 121 -18 56 29 47 -12 -10 -53 -31 -22 -31 -22 -7 -20 17 2 25 -2
25 -12 0 -9 -11 -16 -25 -18 -14 -2 -41 -21 -62 -45 -45 -52 -60 -45 -18 8 45
56 24 67 -40 20 -62 -45 -80 -37 -26 12 29 27 35 37 25 44 -8 5 -19 9 -26 9
-14 0 -110 -55 -135 -78 -10 -8 -18 -10 -18 -4 0 5 14 22 31 37 l32 26 -29 -7
c-16 -4 -40 -15 -54 -24 -31 -21 -80 -34 -80 -21 0 9 18 25 30 26 19 3 80 50
80 61 0 33 -32 23 -96 -30 -37 -31 -70 -52 -73 -47 -3 5 -32 15 -63 22 -32 7
-60 19 -62 26 -7 17 8 16 67 -2 43 -13 51 -13 64 1 14 13 13 14 -8 9 -15 -3
-95 18 -219 60 -171 57 -188 64 -138 61 31 -3 101 -18 155 -34z m-182 -12 c13
-6 15 -9 5 -9 -8 0 -22 4 -30 9 -18 12 -2 12 25 0z m52 -16 c-3 -3 -12 -4 -19
-1 -8 3 -5 6 6 6 11 1 17 -2 13 -5z m923 -3 c0 -11 -18 -24 -55 -40 l-30 -13
29 31 c29 30 56 41 56 22z m30 -10 c0 -5 -22 -32 -48 -60 -60 -64 -188 -117
-154 -64 4 6 33 18 65 27 31 9 57 20 57 25 0 10 63 81 73 81 4 0 7 -4 7 -9z
m-853 -17 c-3 -3 -12 -4 -19 -1 -8 3 -5 6 6 6 11 1 17 -2 13 -5z m40 -10 c-3
-3 -12 -4 -19 -1 -8 3 -5 6 6 6 11 1 17 -2 13 -5z m48 -14 c8 -13 -5 -13 -25
0 -13 8 -13 10 2 10 9 0 20 -4 23 -10z m1235 -58 c-6 -2 -18 4 -25 14 -24 31
-17 39 11 13 14 -13 20 -25 14 -27z m-830 -2 c21 -13 3 -27 -45 -35 l-40 -6
30 25 c34 29 34 29 55 16z m904 -29 c16 -9 32 -23 34 -30 3 -9 0 -11 -9 -6 -8
5 -11 4 -6 -1 5 -5 14 -9 20 -9 5 0 12 -6 15 -14 3 -10 0 -11 -9 -5 -8 4 3
-12 24 -36 20 -24 37 -49 37 -56 0 -7 18 -34 40 -59 40 -46 49 -65 30 -65 -5
0 -10 5 -10 10 0 6 -14 25 -31 43 -17 17 -39 48 -49 67 -10 19 -36 55 -59 80
-23 25 -41 48 -41 52 0 5 -9 17 -20 28 -24 24 -6 25 34 1z m-726 -158 c-3 -16
-74 -58 -157 -92 -43 -18 -101 -80 -115 -123 -12 -36 -33 -49 -146 -93 -62
-24 -98 -27 -48 -5 14 7 32 25 42 40 9 16 25 32 36 35 39 12 19 22 -27 13 -55
-10 -213 0 -213 14 0 5 -4 7 -8 4 -4 -2 -14 -1 -22 4 -12 8 -8 12 18 22 27 10
33 17 29 35 -5 28 26 58 71 70 43 11 45 25 7 33 -17 4 -40 12 -50 18 -23 14
-26 14 95 -12 152 -34 244 -27 396 27 84 31 96 32 92 10z m-520 -60 c-10 -2
-26 -2 -35 0 -10 3 -2 5 17 5 19 0 27 -2 18 -5z m-148 -61 c0 -15 -2 -15 -10
-2 -13 20 -13 33 0 25 6 -3 10 -14 10 -23z m1624 -38 c9 -3 16 -12 16 -20 0
-20 -13 -17 -28 6 -13 22 -12 23 12 14z m-2030 -323 c4 -5 -4 -7 -16 -4 -22 5
-22 5 -3 -10 10 -8 25 -13 32 -10 11 4 203 -142 203 -154 0 -3 -7 0 -15 7 -8
7 -15 9 -15 5 0 -4 -12 4 -26 19 -27 26 -44 33 -44 18 0 -4 3 -12 8 -18 4 -5
-1 -1 -10 9 -10 11 -18 16 -18 13 0 -4 -13 0 -29 8 -28 15 -111 103 -111 119
0 10 38 9 44 -2z m181 -55 c48 -37 86 -72 65 -60 -25 14 -130 95 -130 100 0 7
19 -4 65 -40z m2775 -181 c-7 -9 -15 -13 -17 -11 -7 7 7 26 19 26 6 0 6 -6 -2
-15z m-1303 -373 c24 -35 43 -68 43 -75 0 -15 -56 51 -72 86 -7 15 -18 27 -24
27 -7 0 -15 7 -18 16 -4 11 -1 14 11 12 9 -2 36 -31 60 -66z m70 -70 c27 -61
25 -84 -2 -25 -10 21 -24 51 -32 67 -10 18 -11 26 -3 21 7 -4 23 -32 37 -63z
m13 -104 c13 -35 25 -57 27 -50 3 7 0 27 -6 44 -6 17 -9 33 -7 35 6 6 46 -66
46 -82 0 -32 34 -112 58 -140 27 -29 27 -29 2 -10 -14 11 -43 36 -66 56 -22
20 -62 48 -88 64 -26 15 -45 30 -42 33 3 3 24 -7 46 -22 46 -30 60 -33 38 -8
-9 9 -19 39 -23 66 -3 27 -9 55 -12 62 -3 8 -3 14 0 14 2 0 15 -28 27 -62z
m-1040 37 c0 -8 -4 -15 -10 -15 -5 0 -10 7 -10 15 0 8 5 15 10 15 6 0 10 -7
10 -15z m1154 -177 c4 -17 2 -28 -4 -28 -5 0 -10 9 -10 19 0 11 -3 28 -6 38
-5 12 -4 15 3 8 6 -5 13 -22 17 -37z m-724 -265 c19 -13 31 -23 27 -23 -11 0
-215 114 -242 134 -27 21 170 -81 215 -111z m854 17 c3 -14 3 -20 0 -14 -3 7
-14 10 -24 7 -21 -6 -28 11 -9 22 6 4 8 14 4 24 -5 14 -4 14 8 1 8 -8 18 -26
21 -40z m-220 -140 c30 -75 17 -169 -38 -277 -14 -29 -34 -53 -46 -56 -25 -7
-25 -2 1 26 32 33 69 113 68 144 -1 21 -6 12 -22 -34 -11 -35 -25 -63 -30 -63
-5 0 -6 8 -2 18 26 63 37 132 31 200 -4 40 -10 80 -13 89 -5 13 -3 14 14 4 11
-6 28 -29 37 -51z m-313 -372 c3 -6 10 -9 15 -9 5 1 33 -6 63 -15 30 -8 65
-13 78 -9 23 5 93 -13 93 -25 0 -3 -14 -11 -30 -19 -17 -7 -56 -35 -87 -61
-32 -27 -61 -47 -65 -44 -4 3 -5 -1 -2 -9 10 -28 -25 -27 -40 1 -37 66 -57
113 -51 122 3 5 -6 27 -20 49 -14 23 -25 43 -25 45 0 8 64 -16 71 -26z m204
-248 c10 -11 16 -20 13 -20 -3 0 -13 9 -23 20 -10 11 -16 20 -13 20 3 0 13 -9
23 -20z m86 -107 c13 -16 12 -17 -3 -4 -17 13 -22 21 -14 21 2 0 10 -8 17 -17z
m492 -773 c-4 -26 -2 -40 6 -40 6 0 11 1 11 3 0 1 7 20 15 42 14 39 14 39 15
10 0 -38 -18 -102 -31 -110 -18 -12 -40 17 -35 44 3 14 7 41 8 59 1 17 5 32 9
32 4 0 5 -18 2 -40z m338 -117 c6 -16 5 -31 -1 -44 -14 -26 -23 -24 -15 4 l7
22 -17 -22 c-9 -13 -21 -23 -27 -23 -7 0 -7 4 -1 13 6 6 13 23 16 37 6 23 5
23 -17 -5 -33 -40 -42 -26 -17 23 13 25 17 43 11 47 -6 3 -10 14 -10 23 0 21
57 -40 71 -75z m-258 20 c-7 -2 -19 -2 -25 0 -7 3 -2 5 12 5 14 0 19 -2 13 -5z
m108 -95 c5 -10 6 -18 1 -18 -5 0 -14 11 -20 25 -22 49 -11 44 19 -7z m179 -8
c-20 -13 -33 -13 -25 0 3 6 14 10 23 10 15 0 15 -2 2 -10z"/>
<path d="M1246 4561 c-3 -5 7 -17 22 -26 27 -18 27 -18 9 2 -9 11 -14 23 -10
26 3 4 1 7 -5 7 -6 0 -13 -4 -16 -9z"/>
<path d="M1370 4492 c0 -4 15 -16 33 -26 l32 -19 -24 26 c-24 27 -41 34 -41
19z"/>
<path d="M1455 4400 c10 -11 20 -20 23 -20 3 0 -3 9 -13 20 -10 11 -20 20 -23
20 -3 0 3 -9 13 -20z"/>
<path d="M2555 4130 c3 -5 15 -10 26 -10 10 0 19 5 19 10 0 6 -12 10 -26 10
-14 0 -23 -4 -19 -10z"/>
<path d="M2648 4108 c17 -8 26 -8 34 0 9 9 4 12 -22 11 -33 0 -34 -1 -12 -11z"/>
<path d="M2525 3765 c-45 -19 -253 -38 -293 -26 -46 14 -84 -4 -51 -25 6 -3 9
-19 5 -35 l-6 -29 58 6 c52 5 192 53 302 103 48 22 35 28 -15 6z"/>
<path d="M1651 3321 c-10 -7 -8 -12 10 -25 28 -19 43 -21 34 -3 -4 6 0 3 9 -7
8 -10 13 -23 10 -27 -3 -5 3 -6 12 -2 10 4 15 2 11 -4 -3 -5 0 -10 8 -10 12 0
12 4 -2 21 -31 37 -46 46 -67 40 -18 -6 -19 -5 -7 10 14 17 5 21 -18 7z"/>
<path d="M3060 1670 c0 -5 5 -10 11 -10 5 0 7 5 4 10 -3 6 -8 10 -11 10 -2 0
-4 -4 -4 -10z"/>
<path d="M3100 1656 c0 -2 9 -6 20 -9 11 -3 18 -1 14 4 -5 9 -34 13 -34 5z"/>
<path d="M3079 1637 c12 -15 12 -20 2 -27 -8 -4 -9 -10 -3 -14 9 -6 20 4 37
33 6 10 4 12 -4 7 -6 -4 -20 -2 -29 6 -15 12 -16 11 -3 -5z"/>
<path d="M3155 1630 c-3 -6 1 -7 9 -4 18 7 21 14 7 14 -6 0 -13 -4 -16 -10z"/>
<path d="M3183 1608 c-19 -25 -23 -47 -7 -41 10 4 14 -2 13 -18 0 -13 -3 -18
-6 -11 -7 19 -22 14 -20 -7 1 -16 5 -18 19 -10 10 5 18 18 18 29 0 11 10 29
23 41 19 19 20 21 3 15 -11 -4 -22 -2 -26 4 -5 8 -10 7 -17 -2z"/>
<path d="M3123 1584 c-7 -7 -13 -23 -12 -36 1 -20 3 -18 15 11 17 37 15 46 -3
25z"/>
<path d="M470 4923 c0 -10 7 -28 15 -39 12 -16 14 -16 9 -2 -7 22 33 40 82 36
18 -1 36 1 40 5 4 4 -10 7 -32 7 -21 0 -56 3 -76 6 -33 6 -38 4 -38 -13z m17
-15 c-3 -8 -6 -5 -6 6 -1 11 2 17 5 13 3 -3 4 -12 1 -19z"/>
<path d="M650 4913 c14 -9 47 -34 73 -56 26 -22 50 -37 53 -35 10 10 -106 108
-128 108 l-22 0 24 -17z"/>
<path d="M950 4696 c0 -2 8 -10 18 -17 15 -13 16 -12 3 4 -13 16 -21 21 -21
13z"/>
<path d="M2260 4630 c0 -5 5 -10 10 -10 6 0 10 5 10 10 0 6 -4 10 -10 10 -5 0
-10 -4 -10 -10z"/>
<path d="M2424 4589 c-3 -6 0 -17 8 -25 13 -13 16 -13 27 0 7 8 10 20 6 26 -8
13 -32 13 -41 -1z"/>
<path d="M3091 4571 c-12 -12 -21 -27 -21 -33 0 -7 7 -2 16 10 18 27 47 30 37
5 -4 -10 -16 -26 -28 -36 -16 -16 -17 -18 -2 -13 16 5 16 4 0 -21 -10 -15 -13
-24 -6 -20 7 4 16 0 22 -10 9 -16 11 -15 12 7 1 14 1 31 0 38 -1 8 6 23 15 34
14 14 16 23 8 35 -16 25 -31 26 -53 4z"/>
<path d="M3080 4442 c0 -12 19 -26 26 -19 2 2 -2 10 -11 17 -9 8 -15 8 -15 2z"/>
<path d="M2572 4429 c2 -6 8 -10 13 -10 5 0 11 4 13 10 2 6 -4 11 -13 11 -9 0
-15 -5 -13 -11z"/>
<path d="M2480 4400 c0 -5 5 -10 10 -10 6 0 10 5 10 10 0 6 -4 10 -10 10 -5 0
-10 -4 -10 -10z"/>
<path d="M3268 4393 c19 -8 14 -22 -7 -16 -14 4 -18 -1 -18 -21 0 -24 0 -25
28 -11 15 8 31 20 35 26 7 13 -13 29 -36 28 -10 0 -11 -2 -2 -6z"/>
<path d="M3206 4222 c-9 -8 14 -32 30 -32 21 0 17 27 -5 33 -11 3 -22 2 -25
-1z"/>
<path d="M1120 4142 c0 -4 15 -16 33 -26 42 -25 291 -188 342 -225 22 -16 50
-33 61 -39 31 -16 106 -32 118 -25 5 4 -16 12 -47 20 -44 10 -98 39 -244 136
-208 137 -263 170 -263 159z"/>
<path d="M1805 3942 c34 -21 65 -33 65 -27 0 6 -76 45 -87 45 -4 0 6 -8 22
-18z"/>
<path d="M1926 3790 c5 -5 25 -13 44 -16 23 -4 32 -3 25 3 -5 6 -26 13 -45 17
-23 4 -31 3 -24 -4z"/>
<path d="M1814 3665 c-18 -14 -17 -15 11 -9 46 10 65 23 34 24 -14 0 -34 -7
-45 -15z"/>
<path d="M3554 3492 c3 -5 2 -12 -3 -14 -5 -1 -3 -16 5 -33 11 -25 13 -26 8
-5 -6 24 -6 24 10 5 15 -19 15 -19 16 9 0 21 -4 27 -16 22 -8 -3 -12 -2 -9 3
3 5 0 13 -6 17 -7 4 -9 3 -5 -4z"/>
<path d="M1364 3465 c33 -14 61 -23 63 -21 8 8 -51 38 -85 42 -33 4 -31 2 22
-21z"/>
<path d="M1755 3450 c3 -5 8 -10 11 -10 2 0 4 5 4 10 0 6 -5 10 -11 10 -5 0
-7 -4 -4 -10z"/>
<path d="M3810 3450 c8 -5 22 -9 30 -9 10 0 8 3 -5 9 -27 12 -43 12 -25 0z"/>
<path d="M1480 3416 c0 -2 7 -9 15 -16 9 -7 15 -8 15 -2 0 5 -7 12 -15 16 -8
3 -15 4 -15 2z"/>
<path d="M3787 3387 c-3 -9 4 -13 27 -14 41 -2 250 -95 299 -134 20 -16 37
-25 37 -19 0 15 -100 77 -204 126 -107 49 -151 61 -159 41z"/>
<path d="M4002 3384 c10 -10 20 -16 22 -13 3 3 -5 11 -17 18 -21 13 -21 12 -5
-5z"/>
<path d="M3625 3380 c-3 -5 -1 -10 5 -10 6 0 8 -5 4 -12 -4 -7 -3 -8 4 -4 6 4
9 13 5 21 -6 18 -10 19 -18 5z"/>
<path d="M3660 3384 c1 -16 28 -45 34 -36 3 5 -3 17 -14 27 -11 10 -20 14 -20
9z"/>
<path d="M4610 3338 c-12 -22 -12 -22 6 -6 10 10 15 20 12 24 -4 3 -12 -5 -18
-18z"/>
<path d="M4641 3324 c-17 -14 -30 -29 -27 -31 3 -3 19 6 36 21 36 30 45 31 80
11 14 -8 41 -14 60 -14 l35 0 -25 13 c-14 8 -48 17 -76 21 -46 6 -54 4 -83
-21z"/>
<path d="M4097 3319 c12 -15 73 -53 73 -46 0 2 -19 17 -42 32 -24 16 -38 22
-31 14z"/>
<path d="M3715 3310 c3 -5 8 -10 11 -10 2 0 4 5 4 10 0 6 -5 10 -11 10 -5 0
-7 -4 -4 -10z"/>
<path d="M3245 3300 c-4 -7 -3 -16 3 -22 14 -14 45 -2 40 15 -6 16 -34 21 -43
7z"/>
<path d="M4669 3280 c-34 -30 -30 -42 5 -15 31 23 52 18 84 -21 18 -22 35 -33
42 -29 8 5 3 16 -16 36 -15 16 -32 29 -38 29 -5 0 -17 7 -26 15 -14 13 -20 12
-51 -15z"/>
<path d="M1595 3270 c3 -5 11 -10 16 -10 6 0 7 5 4 10 -3 6 -11 10 -16 10 -6
0 -7 -4 -4 -10z"/>
<path d="M4280 3216 c0 -2 8 -10 18 -17 15 -13 16 -12 3 4 -13 16 -21 21 -21
13z"/>
<path d="M4471 3190 c-17 -24 -27 -29 -44 -24 -21 6 -21 6 -4 -12 17 -18 18
-18 38 6 22 28 41 60 36 60 -2 0 -13 -14 -26 -30z"/>
<path d="M4519 3193 c-13 -16 -12 -17 4 -4 9 7 17 15 17 17 0 8 -8 3 -21 -13z"/>
<path d="M740 3196 c0 -2 8 -10 18 -17 15 -13 16 -12 3 4 -13 16 -21 21 -21
13z"/>
<path d="M3976 3184 c-11 -7 -18 -16 -15 -18 2 -2 13 2 23 10 11 7 18 16 15
18 -2 2 -13 -2 -23 -10z"/>
<path d="M3990 3162 c0 -12 19 -26 26 -19 2 2 -2 10 -11 17 -9 8 -15 8 -15 2z"/>
<path d="M4035 3150 c-4 -6 7 -10 27 -9 27 0 30 2 13 9 -27 12 -33 12 -40 0z"/>
<path d="M3528 3115 c-21 -19 -34 -35 -30 -35 5 0 23 16 42 35 44 45 36 45
-12 0z"/>
<path d="M4108 3133 c7 -3 16 -2 19 1 4 3 -2 6 -13 5 -11 0 -14 -3 -6 -6z"/>
<path d="M4198 3123 c7 -3 16 -2 19 1 4 3 -2 6 -13 5 -11 0 -14 -3 -6 -6z"/>
<path d="M3360 2880 c-8 -5 -11 -12 -7 -16 4 -4 13 -2 19 4 15 15 7 24 -12 12z"/>
<path d="M3310 2870 c0 -5 5 -10 11 -10 5 0 7 5 4 10 -3 6 -8 10 -11 10 -2 0
-4 -4 -4 -10z"/>
<path d="M2058 2855 c-12 -12 9 -60 27 -64 16 -3 17 -1 8 11 -7 8 -16 24 -20
36 -5 13 -12 20 -15 17z"/>
<path d="M2210 2740 c0 -5 5 -10 10 -10 6 0 10 5 10 10 0 6 -4 10 -10 10 -5 0
-10 -4 -10 -10z"/>
<path d="M855 2730 l-50 -7 50 -1 c28 0 59 3 70 8 l20 9 -20 -1 c-11 -1 -42
-4 -70 -8z"/>
<path d="M2315 2680 c-3 -5 -1 -10 4 -10 6 0 11 5 11 10 0 6 -2 10 -4 10 -3 0
-8 -4 -11 -10z"/>
<path d="M489 2666 c-43 -10 -85 -34 -76 -43 5 -4 108 37 122 49 5 4 7 7 5 7
-3 -1 -26 -6 -51 -13z"/>
<path d="M700 2604 c-41 -7 -100 -22 -130 -34 -30 -11 -44 -18 -30 -15 14 2
70 14 125 25 55 10 120 24 145 29 l45 9 -40 0 c-22 0 -74 -6 -115 -14z"/>
<path d="M1288 2415 c-35 -30 -35 -35 -2 -35 26 0 67 38 57 52 -8 14 -27 8
-55 -17z"/>
<path d="M2350 2399 c0 -8 11 -30 25 -49 32 -43 32 -34 0 21 -14 24 -25 37
-25 28z"/>
<path d="M1808 2317 c-29 -24 -59 -42 -65 -40 -7 3 -13 -1 -13 -8 0 -7 -10
-23 -21 -36 l-22 -22 34 11 c88 29 159 81 159 117 0 30 -12 26 -72 -22z"/>
<path d="M2015 2285 c-28 -35 -26 -55 3 -55 15 -1 15 -2 -2 -15 -30 -22 -8
-18 31 6 19 12 32 27 29 34 -2 7 1 18 7 24 6 6 7 11 1 11 -5 0 -15 -5 -22 -12
-19 -19 -40 6 -22 27 7 8 10 15 7 15 -3 0 -18 -16 -32 -35z"/>
<path d="M2275 2290 c16 -16 34 -30 39 -30 6 0 -3 14 -21 30 -41 39 -55 39
-18 0z"/>
<path d="M2400 2308 c0 -3 6 -21 14 -39 8 -19 17 -50 20 -69 3 -21 15 -43 31
-55 14 -12 25 -26 25 -33 0 -13 32 -32 55 -32 11 0 15 5 11 15 -3 8 -1 15 5
15 6 0 7 5 3 11 -5 8 -9 7 -14 -1 -6 -10 -20 -3 -54 25 -41 33 -61 56 -38 41
5 -3 -5 23 -21 57 -29 61 -37 76 -37 65z"/>
<path d="M1003 2180 c-92 -97 -113 -125 -113 -149 0 -40 12 -45 44 -20 33 26
33 39 1 39 -14 0 -25 3 -25 6 0 3 47 57 105 119 91 99 113 126 103 125 -2 -1
-54 -54 -115 -120z"/>
<path d="M2247 2263 c-15 -15 -14 -18 15 -40 18 -13 42 -23 54 -23 14 0 25 -8
29 -20 9 -27 23 -25 23 3 0 16 -15 34 -53 60 -48 33 -53 35 -68 20z"/>
<path d="M3632 2271 c2 -7 7 -12 11 -12 12 1 9 15 -3 20 -7 2 -11 -2 -8 -8z"/>
<path d="M2070 2220 c-12 -8 -10 -10 10 -10 14 0 32 5 40 10 12 8 10 10 -10
10 -14 0 -32 -5 -40 -10z"/>
<path d="M2143 2210 c-13 -5 -23 -12 -23 -14 0 -3 7 -3 15 0 25 10 17 -8 -30
-66 -30 -36 -40 -57 -33 -61 9 -6 9 -14 0 -34 -16 -35 -15 -37 11 -24 l22 11
-20 -21 c-11 -11 -41 -31 -65 -43 -28 -14 -45 -29 -44 -40 1 -10 -4 -14 -13
-11 -7 3 -24 -6 -36 -20 -98 -109 -117 -144 -74 -132 76 20 104 30 118 42 8 7
24 13 35 13 11 0 24 4 30 9 5 5 29 12 53 15 24 2 48 9 53 14 9 9 32 4 96 -19
13 -5 22 -5 22 1 0 6 -4 10 -10 10 -5 0 -17 11 -25 24 -15 23 -15 27 0 49 19
30 65 34 72 6 3 -11 9 -19 13 -19 5 0 6 10 2 22 -3 11 -1 19 4 16 5 -4 29 5
54 18 41 21 42 23 18 24 -15 0 -33 -6 -40 -13 -7 -7 -20 -16 -28 -19 -16 -6
-22 34 -24 150 -1 28 -4 52 -7 52 -9 0 -19 -39 -19 -77 0 -17 -4 -35 -10 -38
-6 -4 -10 10 -10 36 0 28 -6 46 -17 55 -17 13 -17 14 0 8 13 -5 17 -1 17 20 0
19 -9 32 -32 46 -36 22 -43 23 -75 10z m157 -230 c0 -5 -2 -10 -4 -10 -3 0 -8
5 -11 10 -3 6 -1 10 4 10 6 0 11 -4 11 -10z m-110 -4 c0 -2 -9 -6 -20 -9 -11
-3 -18 -1 -14 4 5 9 34 13 34 5z m0 -75 c0 -12 -20 -25 -27 -18 -7 7 6 27 18
27 5 0 9 -4 9 -9z m-100 -5 c0 -3 -4 -8 -10 -11 -5 -3 -10 -1 -10 4 0 6 5 11
10 11 6 0 10 -2 10 -4z m-30 -16 c0 -5 -5 -10 -11 -10 -5 0 -7 5 -4 10 3 6 8
10 11 10 2 0 4 -4 4 -10z m70 0 c0 -5 -4 -10 -10 -10 -5 0 -10 5 -10 10 0 6 5
10 10 10 6 0 10 -4 10 -10z m-120 -30 c-11 -20 -30 -28 -30 -12 0 11 22 32 32
32 5 0 4 -9 -2 -20z m-50 -24 c0 -3 -4 -8 -10 -11 -5 -3 -10 -1 -10 4 0 6 5
11 10 11 6 0 10 -2 10 -4z"/>
<path d="M1365 2200 c-3 -5 3 -10 14 -10 11 0 23 5 26 10 3 6 -3 10 -14 10
-11 0 -23 -4 -26 -10z"/>
<path d="M2560 2169 c32 -28 33 -30 10 -25 -23 6 -23 6 -5 -5 11 -7 23 -17 27
-23 4 -6 8 -7 8 -2 0 5 10 0 23 -11 12 -12 34 -21 49 -21 l28 1 -24 18 c-13
11 -28 19 -33 19 -4 0 -1 -5 7 -10 9 -6 10 -10 3 -10 -7 0 -17 9 -23 19 -5 11
-31 33 -57 50 l-48 31 35 -31z"/>
<path d="M1955 2130 c3 -5 8 -10 11 -10 2 0 4 5 4 10 0 6 -5 10 -11 10 -5 0
-7 -4 -4 -10z"/>
<path d="M2440 2131 c0 -5 7 -12 16 -15 24 -9 28 -7 14 9 -14 17 -30 20 -30 6z"/>
<path d="M2746 2122 c-7 -11 42 -38 51 -29 3 4 -2 14 -13 22 -22 17 -31 18
-38 7z"/>
<path d="M1954 2064 c18 -70 18 -80 -2 -97 -20 -18 -20 -17 -27 25 -10 59 -21
78 -29 50 -10 -29 -3 -116 9 -124 6 -5 5 -8 -3 -8 -13 0 -47 -68 -39 -76 2 -2
17 16 32 41 16 25 35 45 41 45 7 0 21 10 31 23 10 13 24 22 31 19 22 -7 13 47
-14 88 -31 47 -39 50 -30 14z"/>
<path d="M1453 2023 c-40 -32 -70 -59 -68 -61 5 -6 155 100 155 110 0 16 -16
7 -87 -49z"/>
<path d="M1870 2073 c0 -5 -18 -28 -39 -53 -45 -52 -67 -48 -27 5 l27 35 -35
-21 c-19 -11 -40 -26 -46 -34 -14 -16 -5 -35 16 -35 8 0 14 -4 14 -8 0 -12
-34 -42 -48 -42 -6 0 -17 -8 -24 -18 -7 -10 -20 -21 -29 -24 -21 -8 -32 -48
-13 -48 8 0 14 -10 14 -22 0 -20 4 -18 23 14 36 58 106 156 117 163 7 5 9 -6
6 -32 -7 -61 -15 -74 -40 -67 -14 4 -18 3 -11 -4 6 -5 19 -12 30 -14 13 -2 19
-11 18 -23 -1 -20 -1 -20 12 0 8 11 18 25 22 30 4 6 15 19 23 30 8 10 10 16 4
12 -25 -15 -31 90 -9 133 9 17 11 30 5 30 -5 0 -10 -3 -10 -7z m-20 -125 c0
-18 -2 -20 -9 -8 -6 8 -7 18 -5 22 9 14 14 9 14 -14z"/>
<path d="M3584 1913 c3 -7 -1 -13 -11 -15 -16 -3 -15 -5 4 -16 21 -11 23 -11
20 7 -2 11 -7 24 -12 28 -4 5 -5 3 -1 -4z"/>
<path d="M1750 1840 c-6 -11 -7 -20 -2 -20 6 0 12 9 15 20 3 11 3 20 1 20 -2
0 -8 -9 -14 -20z"/>
<path d="M3537 1841 c-4 -17 -3 -21 5 -13 5 5 8 16 6 23 -3 8 -7 3 -11 -10z"/>
<path d="M2466 1721 c11 -11 84 -42 84 -36 0 6 -76 45 -87 45 -4 0 -3 -4 3 -9z"/>
<path d="M3520 1705 c-15 -16 -30 -23 -41 -20 -13 5 -17 1 -16 -15 1 -20 33
-38 45 -25 3 3 7 16 7 28 0 13 9 26 23 32 12 5 22 13 22 17 0 15 -17 8 -40
-17z"/>
<path d="M3590 1724 c0 -5 -16 -18 -35 -28 -32 -17 -47 -37 -27 -36 14 1 76
60 69 66 -4 4 -7 3 -7 -2z"/>
<path d="M3434 1709 c-3 -6 -2 -15 3 -20 5 -5 9 -1 9 11 0 23 -2 24 -12 9z"/>
<path d="M3490 1710 c-8 -5 -12 -12 -9 -15 4 -3 12 1 19 10 14 17 11 19 -10 5z"/>
<path d="M3585 1683 c-33 -18 -61 -43 -48 -43 10 0 83 49 83 55 0 7 -1 6 -35
-12z"/>
<path d="M2680 1617 c0 -2 39 -33 88 -69 107 -80 335 -304 382 -375 19 -29 39
-53 43 -53 4 0 -12 28 -37 63 -25 35 -57 88 -71 118 -13 30 -25 46 -25 36 0
-14 -20 -1 -72 48 -100 92 -308 248 -308 232z"/>
<path d="M3339 1561 c-95 -37 -206 -129 -177 -147 6 -4 8 -3 5 3 -14 22 93 99
192 139 31 13 49 23 41 23 -8 0 -36 -8 -61 -18z"/>
<path d="M3377 1548 c-32 -11 -56 -22 -53 -25 3 -3 27 2 53 11 26 8 62 20 78
25 28 9 28 9 5 9 -14 0 -51 -9 -83 -20z"/>
<path d="M3640 1343 c18 -29 36 -56 42 -59 14 -9 -20 49 -50 84 -16 19 -14 12
8 -25z"/>
<path d="M3006 1135 c-3 -9 1 -18 10 -22 19 -7 39 11 30 26 -10 16 -33 13 -40
-4z"/>
<path d="M3415 1000 c21 -22 41 -40 44 -40 3 0 -13 18 -34 40 -21 22 -41 40
-44 40 -3 0 13 -18 34 -40z"/>
<path d="M5148 993 c7 -3 16 -2 19 1 4 3 -2 6 -13 5 -11 0 -14 -3 -6 -6z"/>
<path d="M5088 983 c6 -2 18 -2 25 0 6 3 1 5 -13 5 -14 0 -19 -2 -12 -5z"/>
<path d="M4989 957 c-84 -35 -186 -108 -269 -194 l-75 -77 91 85 c94 87 186
148 283 186 31 12 49 22 41 22 -8 0 -40 -10 -71 -22z"/>
<path d="M5335 949 c20 -18 38 -29 41 -26 6 5 -58 57 -70 57 -4 0 9 -14 29
-31z"/>
<path d="M5452 882 c27 -31 55 -76 67 -110 16 -42 20 -48 16 -22 -9 57 -44
117 -88 152 l-42 33 47 -53z"/>
<path d="M5290 910 c0 -5 7 -7 15 -4 8 4 15 8 15 10 0 2 -7 4 -15 4 -8 0 -15
-4 -15 -10z"/>
<path d="M5241 803 c-23 -22 -24 -23 -3 -23 12 0 23 8 27 21 9 28 4 29 -24 2z"/>
<path d="M5451 726 c-8 -10 -9 -16 -1 -21 5 -3 10 0 10 7 1 7 12 -14 26 -47
19 -46 23 -64 15 -77 -14 -22 -14 -38 -1 -18 5 8 10 10 10 4 0 -6 -11 -23 -25
-38 -18 -19 -31 -25 -47 -21 -16 4 -27 0 -36 -15 -12 -20 -5 -27 14 -12 5 4 1
-1 -9 -10 -19 -18 -52 -14 -40 6 4 6 -1 5 -10 -3 -14 -11 -18 -11 -23 2 -8 22
4 37 23 30 15 -6 16 -5 3 9 -11 11 -17 13 -23 4 -6 -8 -10 -8 -14 2 -2 6 -9
12 -15 12 -8 0 -6 -17 9 -56 2 -6 -5 -14 -16 -17 -11 -3 -20 -2 -19 2 2 19 -3
31 -12 26 -6 -4 -8 -15 -5 -26 5 -13 1 -21 -12 -25 -10 -3 -33 -13 -51 -21
-25 -13 -35 -14 -44 -5 -16 16 -29 15 -25 0 1 -9 -10 -13 -32 -13 -40 0 -52
-20 -19 -31 l23 -8 -25 -7 c-14 -4 -59 -8 -100 -8 -41 -1 -82 -6 -90 -11 -10
-7 43 -9 165 -5 213 7 379 17 348 23 -13 2 -23 6 -23 8 0 3 24 28 54 57 72 71
98 124 103 212 1 39 0 64 -3 58 -3 -7 -12 -13 -19 -13 -17 0 -46 40 -39 52 9
14 -13 9 -25 -6z m-191 -316 c-14 -11 -29 -20 -35 -20 -5 0 1 9 15 20 14 11
30 20 35 20 6 0 -1 -9 -15 -20z"/>
<path d="M5329 713 c13 -26 6 -30 -15 -8 -12 12 -20 13 -37 3 -21 -11 -21 -11
-2 -19 11 -4 14 -8 7 -8 -23 -2 -2 -21 23 -21 34 0 53 37 30 59 -16 15 -17 15
-6 -6z"/>
<path d="M3940 696 c0 -2 8 -10 18 -17 15 -13 16 -12 3 4 -13 16 -21 21 -21
13z"/>
<path d="M4071 671 c24 -32 23 -86 -1 -87 -8 0 -33 14 -55 30 -29 22 -35 24
-21 8 11 -13 35 -32 53 -43 32 -20 35 -20 59 -4 21 14 25 22 21 45 -5 23 -2
29 16 34 20 6 21 7 4 17 -9 5 -21 8 -26 5 -4 -3 -17 1 -27 9 -33 25 -46 18
-23 -14z"/>
<path d="M5126 624 c-5 -12 -2 -15 10 -10 8 3 20 6 25 6 5 0 9 5 9 10 0 16
-37 11 -44 -6z"/>
<path d="M5190 630 c-13 -9 -13 -11 0 -20 20 -13 77 -23 94 -17 7 3 16 15 19
26 5 19 1 21 -46 21 -29 0 -59 -5 -67 -10z"/>
<path d="M5359 581 c7 -5 10 -14 7 -20 -4 -6 0 -11 8 -11 9 0 16 4 16 8 0 12
-22 32 -34 32 -6 0 -5 -4 3 -9z"/>
<path d="M4230 530 c0 -5 5 -10 10 -10 6 0 10 5 10 10 0 6 -4 10 -10 10 -5 0
-10 -4 -10 -10z"/>
<path d="M4990 458 c0 -4 4 -8 8 -8 5 0 19 -9 32 -20 26 -22 29 -23 49 -11 10
7 11 13 2 30 -9 16 -20 20 -51 19 -22 -1 -40 -5 -40 -10z"/>
<path d="M4990 390 c0 -5 4 -10 9 -10 6 0 13 5 16 10 3 6 -1 10 -9 10 -9 0
-16 -4 -16 -10z"/>
</g>
</svg>
